SplineFontDB: 3.0
FontName: CloisterStM
FullName: Sorts Mill Cloister
FamilyName: Sorts Mill Cloister
Weight: Regular
Copyright: Created by trashman with FontForge 2.0 (http://fontforge.sf.net)
UComments: "2010-9-19: Created." 
Version: 0.1
ItalicAngle: 0
UnderlinePosition: -100
UnderlineWidth: 50
Ascent: 700
Descent: 300
LayerCount: 3
Layer: 0 0 "Back"  1
Layer: 1 0 "Fore"  0
Layer: 2 0 "backup"  0
NeedsXUIDChange: 1
XUID: [1021 658 797806517 6471305]
OS2Version: 0
OS2_WeightWidthSlopeOnly: 0
OS2_UseTypoMetrics: 1
CreationTime: 1284878830
ModificationTime: 1299123674
OS2TypoAscent: 0
OS2TypoAOffset: 1
OS2TypoDescent: 0
OS2TypoDOffset: 1
OS2TypoLinegap: 0
OS2WinAscent: 0
OS2WinAOffset: 1
OS2WinDescent: 0
OS2WinDOffset: 1
HheadAscent: 0
HheadAOffset: 1
HheadDescent: 0
HheadDOffset: 1
OS2Vendor: 'PfEd'
Lookup: 4 0 1 "'liga' Standard Ligatures in Latin lookup 0"  {"'liga' Standard Ligatures in Latin lookup 0 subtable"  } ['liga' ('latn' <'dflt' > 'DFLT' <'dflt' > ) ]
Lookup: 4 0 0 "'dlig' Discretionary Ligatures in Latin lookup 1"  {"'dlig' Discretionary Ligatures in Latin lookup 1 subtable"  } ['dlig' ('latn' <'dflt' > 'DFLT' <'dflt' > ) ]
Lookup: 260 0 0 "spacing anchors"  {"spacing anchors-1"  } []
Lookup: 258 0 0 "'kern' Horizontal Kerning in Latin lookup 1"  {"'kern' Horizontal Kerning in Latin lookup 1 per glyph data 0"  "'kern' Horizontal Kerning in Latin lookup 1 per glyph data 1"  } ['kern' ('latn' <'dflt' > 'DFLT' <'dflt' > ) ]
MarkAttachClasses: 1
DEI: 91125
Encoding: UnicodeBmp
UnicodeInterp: none
NameList: Adobe Glyph List
DisplaySize: -48
AntiAlias: 1
FitToEm: 1
WinInfo: 60 12 5
BeginPrivate: 8
BlueValues 2 []
BlueScale 8 0.039625
BlueShift 1 7
BlueFuzz 1 0
StdHW 4 [44]
StemSnapH 13 [36 44 49 59]
StdVW 4 [71]
StemSnapV 7 [71 77]
EndPrivate

StartChar: A
Encoding: 65 65 0
Width: 720
VWidth: 0
Flags: W
HStem: -2 35<28.5387 64.9348 152.013 205 480 495.5 642.929 682.999> 213 44<226 452> 618 20G<352.5 363>
DStem2: 85 75 157 112 0.427436 0.904046<21.1656 176.478 224.805 499.971> 414 531 341 507 0.403956 -0.914778<-7.5341 266 313.925 488.413>
LayerCount: 3
Fore
SplineSet
144 70 m 0
 144 39 181 38 205 33 c 1
 205 29 206 26 206 22 c 0
 206 15 205 8 202 -2 c 1
 202 -2 154 3 119 3 c 0
 64 3 30 -3 30 -3 c 1
 26 9 26 15 26 28 c 1
 55 42 72 50 85 75 c 0
 130 164 177 257 222 358 c 0
 251 423 284 486 311 553 c 2
 342 630 l 2
 344 636 347 638 358 638 c 2
 361 638 l 2
 365 638 370 637 371 634 c 2
 414 531 l 1
 471 398 541 249 598 126 c 0
 612 97 629 55 656 41 c 0
 665 36 675 34 682 31 c 1
 683 26 683 20 683 15 c 0
 683 8 682 2 681 -5 c 1
 668 -5 640 0 583 0 c 0
 564 0 484 -5 484 -5 c 1
 481 4 479 11 479 20 c 0
 479 24 480 28 480 33 c 1
 511 37 l 2
 532 40 539 44 539 52 c 0
 539 58 535 67 530 79 c 2
 471 213 l 1
 206 213 l 1
 157 112 l 2
 147 92 144 81 144 70 c 0
452 257 m 1
 341 507 l 1
 226 257 l 1
 452 257 l 1
EndSplineSet
EndChar

StartChar: B
Encoding: 66 66 1
Width: 606
VWidth: 0
Flags: W
HStem: -7 42<56.3993 110.787 208.815 395.38> 329 42<210 381.197> 587 39<74.0677 121.347 216.271 364.084>
VStem: 128 86<376.952 583.25> 426 85<417.255 533.279> 458 93<100.626 254.911>
LayerCount: 3
Fore
SplineSet
205 70 m 0xf4
 205 36 250 35 306 35 c 2
 316 35 l 2
 414 35 458 102 458 181 c 0
 458 233 432 276 384 307 c 0
 356 325 315 329 271 329 c 2
 210 329 l 1
 209 299 205 97 205 70 c 0xf4
214 557 m 0
 212 498 211 500 210 371 c 1
 286 371 l 2
 366 371 426 392 426 471 c 0xf8
 426 500 409 547 357 572 c 0
 336 582 308 587 280 587 c 2
 277 587 l 2
 249 587 215 587 214 557 c 0
170 3 m 0
 128 3 62 -6 62 -6 c 1
 59 1 56 10 56 20 c 0
 56 25 57 32 58 37 c 1
 105 40 112 48 113 66 c 0
 126 244 128 346 128 503 c 4
 128 586 117 584 77 590 c 1
 75 597 74 603 74 609 c 0
 74 615 75 620 80 625 c 1
 92 624 123 622 161 622 c 0
 183 622 240 626 295 626 c 0
 378 626 447 603 488 555 c 0
 503 538 511 514 511 489 c 0xf8
 511 405 444 375 404 353 c 1
 455 333 551 296 551 198 c 0xf4
 551 116 515 57 456 26 c 0
 419 7 374 -7 321 -7 c 0
 267 -7 224 3 170 3 c 0
EndSplineSet
EndChar

StartChar: C
Encoding: 67 67 2
Width: 660
VWidth: 0
Flags: W
HStem: -18 42<297.424 481.402> 584 44<304.457 487.388>
VStem: 54 102<188.675 421.424> 556 34<444.001 508.046> 567 27<117.989 145.859>
LayerCount: 3
Fore
SplineSet
54 318 m 0xf0
 54 495 225 628 394 628 c 0
 447 628 485 618 507 609 c 0
 530 600 542 599 559 599 c 2
 585 599 l 2
 596 599 600 599 600 583 c 0
 600 543 590 454 590 448 c 1
 586 445 580 444 573 444 c 0
 567 444 562 445 556 446 c 1xf0
 555 452 554 462 553 468 c 0
 537 548 474 584 397 584 c 0
 347 584 299 565 261 540 c 0
 187 491 156 421 156 313 c 0
 156 201 192 111 262 65 c 0
 297 42 328 24 384 24 c 0
 481 24 542 69 567 150 c 1
 574 149 581 149 587 146 c 0
 593 143 594 139 594 132 c 0xe8
 594 127 593 120 592 114 c 0
 585 79 570 14 556 -4 c 1
 536 -11 452 -18 417 -18 c 0
 311 -18 238 0 174 53 c 0
 105 110 54 190 54 318 c 0xf0
EndSplineSet
EndChar

StartChar: D
Encoding: 68 68 3
Width: 768
VWidth: 0
Flags: W
HStem: -6 41<37.2263 81.4339> -3 45<194.314 444.284> 587 43<44.4233 101.917 205.62 422.76>
VStem: 94 95<49.9951 330.014> 105 95<293.798 577.736> 600 101<204.501 416.511>
LayerCount: 3
Fore
SplineSet
103 625 m 4xac
 181 625 232 630 314 630 c 4
 362 630 438 625 497 601 c 4
 577 569 631 514 669 439 c 0
 687 403 701 363 701 317 c 0
 701 149 564 0 355 -3 c 0x6c
 288 -3 252 3 164 3 c 0
 118 3 78 -2 44 -6 c 1
 39 1 37 10 37 20 c 0
 37 25 37 30 38 35 c 1
 53 39 70 41 82 47 c 0
 90 51 94 66 94 72 c 0xb4
 104 188 105 391 105 407 c 2
 105 548 l 6
 105 567 98 579 76 581 c 4
 68 582 59 582 48 582 c 5
 46 590 44 596 44 603 c 4
 44 610 46 618 50 627 c 5
 64 626 95 625 103 625 c 4xac
600 316 m 0
 600 364 579 460 508 516 c 4
 452 560 400 587 283 587 c 4
 246 587 201 582 200 550 c 4x6c
 194 355 189 273 189 142 c 0x74
 189 115 190 81 194 65 c 0
 200 42 251 42 292 42 c 2
 311 42 l 2
 504 42 600 140 600 316 c 0
EndSplineSet
EndChar

StartChar: E
Encoding: 69 69 4
Width: 612
VWidth: 0
Flags: W
HStem: -2 34<49.4746 93.7664> 3 43<201.537 459.171> 294 44<199 429.487> 582 43<201 467.328> 586 41<57.2121 111.104>
VStem: 106 90<50.5105 287.055> 115 84<343.2 578> 434 44<206.178 246.437> 452 39<385.3 414.558> 496 27<480.65 527.413> 513 38<118.211 148.553>
LayerCount: 3
Fore
SplineSet
536 614 m 5x34
 523 482 l 5
 516 480 508 480 496 480 c 5
 483 524 478 582 425 582 c 4
 350 582 276 579 201 578 c 5
 199 338 l 5
 397 343 l 6
 431 344 438 356 442 373 c 6
 452 414 l 5
 456 415 460 415 464 415 c 4
 474 415 483 413 491 408 c 5x32c0
 484 356 477 303 477 247 c 4
 477 235 477 222 478 210 c 5
 472 207 466 206 460 206 c 4
 450 206 441 209 436 215 c 5
 434 254 l 6
 432 289 409 289 374 291 c 4
 337 293 311 294 284 294 c 6
 198 294 l 5
 197 234 196 170 196 108 c 4
 196 59 207 46 246 46 c 6
 389 46 l 6
 474 46 497 109 513 155 c 5
 530 155 541 152 551 144 c 5
 532 74 l 6
 525 49 520 25 517 6 c 5
 506 0 l 5
 418 1 311 3 213 3 c 4x7520
 161 3 103 0 55 -2 c 5
 51 6 49 14 49 21 c 4
 49 25 50 28 51 32 c 5
 51 32 57 35 69 39 c 4
 102 50 106 52 106 81 c 4xa520
 108 235 115 382 115 533 c 4
 115 577 106 585 60 586 c 5
 58 592 57 597 57 602 c 4
 57 612 60 621 64 627 c 5xaa
 105 624 151 622 196 622 c 4
 273 622 329 623 413 625 c 6
 524 628 l 5
 536 614 l 5x34
EndSplineSet
EndChar

StartChar: F
Encoding: 70 70 5
Width: 531
VWidth: 0
Flags: W
HStem: -3 41<51.2151 89 207.399 285.899> 294 42<200 385.283> 581 42<204 439.533> 588 39<59.0898 115.6> 611 20G<412 502>
VStem: 105 91<53.6701 292.736> 119 81<336.619 580.886> 404 39<213.036 262 347.219 404.916> 456 32<475.002 559.375>
LayerCount: 3
Fore
SplineSet
204 581 m 1xe380
 200 336 l 1xe380
 357 341 l 2
 404 343 399 368 405 403 c 1
 410 404 415 405 420 405 c 0
 428 405 436 404 444 400 c 1
 440 350 439 337 439 307 c 0
 439 277 443 218 443 218 c 1
 437 215 431 213 425 213 c 0
 418 213 411 215 404 217 c 1
 398 262 l 2
 397 273 391 281 386 284 c 0
 371 293 337 294 316 294 c 2
 199 294 l 1
 198 252 196 204 196 158 c 2
 196 136 l 2
 196 100 196 67 207 53 c 0
 215 43 256 39 280 38 c 1
 284 33 286 26 286 20 c 0
 286 10 282 1 280 -3 c 1
 280 -3 201 2 160 2 c 0
 114 2 56 -3 56 -3 c 1
 53 3 51 13 51 23 c 0
 51 29 52 34 53 38 c 1
 89 43 l 2
 102 45 104 54 105 68 c 0xe580
 114 244 119 391 119 545 c 0
 119 586 104 583 62 588 c 1
 61 593 59 600 59 605 c 0
 59 623 67 627 67 627 c 1xd380
 67 627 147 623 248 623 c 0xe380
 299 623 354 624 412 626 c 0
 436 627 492 631 492 631 c 1xcb80
 502 622 l 1
 502 622 491 503 488 478 c 1
 488 478 480 475 472 475 c 0
 467 475 461 476 456 478 c 1
 454 489 455 506 452 522 c 0
 443 574 428 582 390 582 c 0
 345 582 204 581 204 581 c 1xe380
EndSplineSet
EndChar

StartChar: G
Encoding: 71 71 6
Width: 714
VWidth: 0
Flags: W
HStem: -18 46<314.008 537.802> 266 44<423.073 536.499> 583 44<306.103 507.488>
VStem: 50 101<193.749 408.427> 546 80<48.6501 255.949>
LayerCount: 3
Fore
SplineSet
629 23 m 1
 613 8 l 1
 576 -7 452 -18 417 -18 c 0
 216 -18 50 94 50 288 c 0
 50 465 175 627 403 627 c 0
 483 627 563 607 563 607 c 1
 571 622 l 1
 577 624 583 624 589 624 c 0
 595 624 601 624 607 622 c 1
 607 622 606 490 606 484 c 1
 600 482 595 480 589 480 c 0
 585 480 580 481 575 483 c 1
 554 521 530 548 530 548 c 1
 530 548 487 583 410 583 c 0
 251 583 151 456 151 297 c 0
 151 148 267 28 414 28 c 0
 502 28 539 47 539 47 c 1
 543 82 546 130 546 174 c 0
 546 193 544 211 542 227 c 0
 538 257 518 264 478 266 c 0
 457 267 428 269 428 269 c 1
 425 275 423 284 423 290 c 0
 423 297 425 304 430 310 c 1
 469 310 504 308 545 308 c 0
 588 308 634 310 669 314 c 1
 671 310 672 305 672 300 c 0
 672 295 671 290 671 286 c 1
 657 279 641 261 637 240 c 0
 631 210 626 162 626 132 c 0
 626 118 629 35 629 23 c 1
EndSplineSet
EndChar

StartChar: H
Encoding: 72 72 7
Width: 792
VWidth: 0
Flags: W
HStem: 2 42<23.4614 92.8499 190.683 258.993 521.461 591.904 690.452 754.987> 306 48<187 601> 592 38<35.0527 99.572 198.653 265.964 531.053 594.375 697.165 763.993>
VStem: 98 87<66.0406 306> 105 90<356.957 589.627> 105 81<141.456 306 354 585.645> 601 83<46.9795 306 354 488.949> 604 90<45.5999 305.086 357.192 582.71>
LayerCount: 3
Fore
SplineSet
98 137 m 0xf0
 100 233 105 269 105 354 c 18xe4
 105 503 l 2
 105 525 105 548 101 567 c 0
 97 588 90 592 74 592 c 2
 40 592 l 1
 37 597 35 605 35 613 c 0
 35 620 37 626 41 631 c 1
 71 630 120 626 151 626 c 0
 184 626 232 629 261 630 c 1
 265 626 266 620 266 613 c 0
 266 606 265 598 263 593 c 1
 237 592 l 2
 204 591 197 583 195 550 c 0
 191 485 189 417 187 354 c 1
 604 354 l 1
 604 503 l 2
 604 525 602 546 598 565 c 0
 594 586 565 588 549 588 c 2
 536 588 l 1
 533 594 531 602 531 609 c 0
 531 617 533 625 537 630 c 1
 537 630 546 630 560 629 c 0
 585 627 625 624 650 624 c 0
 675 624 704 627 726 629 c 0
 745 630 759 630 759 630 c 1
 763 626 764 619 764 612 c 0
 764 604 763 595 761 589 c 1
 737 589 l 2
 701 589 695 583 694 550 c 0xe9
 688 443 684 325 684 241 c 2
 684 175 l 2
 684 137 685 99 691 61 c 4
 694 46 710 45 731 44 c 6
 752 43 l 5
 754 39 755 29 755 24 c 4
 755 15 753 7 750 1 c 5
 750 1 689 2 636 2 c 4
 599 2 526 -1 526 -1 c 5
 526 -1 521 9 521 17 c 4
 521 26 525 41 525 41 c 5
 525 41 556 43 580 45 c 4
 596 46 599 115 599 137 c 0
 599 165 601 220 601 241 c 2
 601 306 l 1
 186 306 l 1xe6
 186 283 185 261 185 241 c 2
 185 152 l 2
 185 121 186 87 192 57 c 4
 195 44 210 43 228 43 c 6
 255 43 l 5
 257 39 259 29 259 24 c 4
 259 15 258 9 255 1 c 5
 255 1 190 2 137 2 c 4
 100 2 28 -1 28 -1 c 5
 28 -1 23 9 23 17 c 4
 23 26 27 41 27 41 c 5
 69 44 l 6
 74 44 90 54 93 65 c 4
 98 87 98 122 98 137 c 0xf0
EndSplineSet
EndChar

StartChar: I
Encoding: 73 73 8
Width: 330
VWidth: 0
Flags: W
HStem: -3 21G<20.3333 155> 3 38<27.0481 109.338 209.104 303.999> 591 39<32.0361 119.572 217.077 299.703> 611 20G<287.5 303>
VStem: 120 84<47.8758 583.084> 125 88<353.88 587.287>
LayerCount: 3
Fore
SplineSet
204 94 m 2x28
 204 62 207 45 248 42 c 0
 258 41 277 41 300 40 c 1
 302 36 304 27 304 22 c 0
 304 13 303 7 300 -1 c 1
 300 -1 207 3 155 3 c 0x68
 93 3 27 -3 27 -3 c 1
 27 -3 20 10 20 18 c 0x88
 20 27 24 41 24 41 c 1
 52 41 l 2
 102 41 120 42 120 136 c 0x48
 120 215 125 281 125 353 c 2
 125 502 l 2
 125 524 125 547 121 566 c 0
 117 587 110 591 94 591 c 2
 37 591 l 1
 34 596 32 604 32 612 c 0
 32 619 34 625 38 630 c 1x64
 68 629 140 625 171 625 c 0
 204 625 274 629 301 631 c 1x14
 305 627 306 619 306 612 c 0
 306 605 305 596 303 591 c 1
 257 590 l 2
 224 589 215 582 213 549 c 0x24
 210 502 207 370 207 353 c 0
 207 329 204 213 204 135 c 2
 204 94 l 2x28
EndSplineSet
EndChar

StartChar: J
Encoding: 74 74 9
Width: 296
VWidth: 0
Flags: W
HStem: -215 71<-12 78.8926> 588 40<33.0527 109.74> 613 20G<237 263>
VStem: 117 83<-46.0162 588.162>
LayerCount: 3
Fore
SplineSet
111 567 m 0xb0
 110 588 95 589 86 589 c 2
 38 588 l 1
 35 593 33 602 33 610 c 0
 33 617 35 623 39 628 c 1xd0
 60 627 81 627 102 627 c 0
 157 627 213 629 261 633 c 1
 265 629 266 620 266 613 c 0
 266 606 265 598 263 593 c 1
 238 592 l 2
 214 591 204 583 203 560 c 0
 201 518 201 471 201 424 c 0
 201 298 200 242 200 72 c 0
 200 57 197 30 194 12 c 0
 176 -89 111 -215 10 -215 c 0
 -34 -215 -75 -180 -75 -144 c 0
 -75 -114 -47 -92 -22 -92 c 0
 10 -92 15 -144 57 -144 c 0
 111 -144 117 -28 117 86 c 2
 117 350 l 2
 117 424 115 504 111 567 c 0xb0
EndSplineSet
EndChar

StartChar: K
Encoding: 75 75 10
Width: 638
VWidth: 0
Flags: W
HStem: -12 40<550.406 618.58> 1 42<19.2688 86.8445 190.921 258.977> 587 39<512.722 597.822> 593 38<35.0132 100.133 201.016 267.988 374.013 420.467>
VStem: 96 88<48.1947 322.235> 107 79<261.674 324 380 582.808>
DStem2: 187 380 255 375 0.788894 0.614529<50.5721 301.683>
LayerCount: 3
Fore
SplineSet
400 540 m 0x54
 412 550 421 561 421 571 c 0
 421 579 410 594 379 594 c 1
 376 599 374 603 374 611 c 0
 374 618 375 621 379 628 c 1
 409 627 454 626 485 626 c 4
 518 626 565 628 594 629 c 1
 597 624 598 618 598 611 c 0
 598 602 596 593 594 587 c 1
 557 587 l 2
 535 587 536 586 518 574 c 0
 406 497 255 375 255 375 c 1
 255 375 396 188 496 90 c 0
 525 61 540 52 577 34 c 0
 584 30 600 30 617 28 c 1
 619 25 619 20 619 15 c 0
 619 4 616 -7 611 -12 c 1
 547 -10 501 -7 449 32 c 0
 393 74 335 138 287 196 c 0
 229 265 186 324 186 324 c 1xa4
 186 264 185 210 184 152 c 0
 184 121 186 87 192 57 c 0
 195 44 210 43 228 43 c 2
 255 43 l 1
 257 39 259 29 259 24 c 0
 259 15 258 9 255 1 c 1
 255 1 190 2 137 2 c 0
 100 2 24 -1 24 -1 c 1
 24 -1 19 7 19 17 c 0
 19 30 24 44 24 44 c 1
 66 46 l 2
 95 47 95 103 96 132 c 0x48
 100 268 107 365 107 503 c 0
 107 525 106 548 102 567 c 0
 98 588 86 593 70 593 c 2
 40 593 l 1
 37 598 35 605 35 613 c 0
 35 620 37 626 41 631 c 1
 45 631 49 631 53 631 c 0
 79 631 111 627 151 627 c 0
 184 627 234 631 263 632 c 1
 267 628 268 620 268 613 c 0
 268 606 267 597 265 592 c 1
 221 590 198 594 195 550 c 0
 191 485 189 443 187 380 c 1
 270 441 320 475 400 540 c 0x54
EndSplineSet
EndChar

StartChar: L
Encoding: 76 76 11
Width: 546
VWidth: 0
Flags: W
HStem: 3 39<33.0519 94.2134 184.86 428.272> 585 40<39.0132 101.155 198.871 280.972>
VStem: 99 85<44.0175 341.289> 107 89<288.947 582.137>
LayerCount: 3
Fore
SplineSet
38 -2 m 1xe0
 35 3 33 11 33 20 c 0
 33 27 34 34 37 39 c 1
 37 39 59 41 68 42 c 0
 84 44 91 48 95 64 c 0
 99 77 99 94 99 109 c 0xe0
 102 212 107 264 107 353 c 2
 107 517 l 2
 107 553 105 585 70 585 c 2
 43 585 l 1
 41 589 39 597 39 604 c 0
 39 613 41 623 45 627 c 1
 75 626 120 623 151 623 c 0
 184 623 247 624 276 625 c 1
 280 621 281 614 281 607 c 0
 281 600 280 590 278 585 c 1
 237 585 l 2
 204 585 198 577 196 544 c 0xd0
 189 388 184 126 184 90 c 0
 184 68 186 44 186 44 c 1
 234 42 268 42 310 42 c 0
 331 42 352 43 373 44 c 0
 446 46 470 106 484 148 c 0
 488 159 490 170 502 170 c 0
 519 170 519 160 519 145 c 0
 519 134 510 98 502 76 c 0
 494 55 493 26 487 4 c 1
 476 -2 l 1
 386 3 234 3 136 3 c 0
 101 3 55 -1 38 -2 c 1xe0
EndSplineSet
EndChar

StartChar: M
Encoding: 77 77 12
Width: 866
VWidth: 0
Flags: W
HStem: 0 35<21.1427 67.5876> 2 38<159.014 228.731 568.215 644.576 744.722 793.998> 589 41<35.0886 95 206.003 275.974 591.012 641.998 748.698 799.906>
VStem: 87 55<55.1364 384.104> 95 111<539.374 588.984> 95 46<337.4 511.993> 651 87<42.9291 389.836> 664 84<301.66 531.986>
DStem2: 214 565 167 476 0.442644 -0.896697<17.5413 464.927>
LayerCount: 3
Fore
SplineSet
738 152 m 0xa2
 738 121 739 87 745 57 c 0
 748 44 745 40 763 40 c 2
 790 40 l 1
 792 36 794 26 794 21 c 0
 794 12 791 4 787 -2 c 1
 787 -2 743 2 690 2 c 0
 653 2 573 -1 573 -1 c 1
 573 -1 568 9 568 17 c 0
 568 26 572 41 572 41 c 1
 638 43 l 2
 643 43 643 54 646 65 c 0
 651 87 651 122 651 137 c 0x62
 654 270 659 378 664 504 c 0
 664 513 667 532 664 532 c 0
 660 532 649 509 642 494 c 0
 593 388 532 269 486 175 c 1
 439 83 l 2
 419 46 412 24 399 24 c 0
 385 24 379 47 361 83 c 2
 167 476 l 2
 158 494 151 512 146 512 c 0
 143 512 141 503 141 477 c 0x65
 141 339 142 220 142 132 c 0
 142 116 143 96 147 80 c 0
 156 47 190 40 225 37 c 1
 225 37 229 26 229 17 c 0
 229 9 224 -1 224 -1 c 1
 224 -1 159 3 122 3 c 0
 69 3 28 0 28 0 c 1
 25 4 21 12 21 20 c 0
 21 26 23 30 26 35 c 1
 62 47 75 51 80 72 c 0
 86 102 87 136 87 167 c 0xb0
 87 282 95 469 95 547 c 2
 95 575 l 2
 95 584 89 590 38 592 c 1
 36 599 35 606 35 613 c 0
 35 620 36 627 37 633 c 1
 100 631 152 630 211 630 c 2
 273 630 l 1
 275 622 276 614 276 608 c 0
 276 600 275 593 274 587 c 1
 255 588 237 589 218 589 c 0
 210 589 206 587 206 583 c 0
 206 579 210 573 214 565 c 2
 320 356 l 2
 362 273 416 148 420 148 c 0
 427 148 535 394 634 566 c 0
 638 573 642 579 642 583 c 0
 642 587 639 589 629 589 c 0
 621 589 606 589 595 588 c 1
 592 593 591 603 591 611 c 0
 591 618 592 624 596 629 c 1
 626 628 673 627 704 627 c 0
 737 627 765 628 794 629 c 1
 798 625 800 620 800 613 c 0
 800 606 799 598 797 593 c 1
 780 592 l 2
 747 590 749 583 748 550 c 0xa9
 744 425 738 281 738 152 c 0xa2
EndSplineSet
EndChar

StartChar: N
Encoding: 78 78 13
Width: 792
VWidth: 0
Flags: W
HStem: -1 37<17.0357 79.9258 155.326 246.986> 587 40<527.053 572 671.057 742.974>
VStem: 89 52<50.5456 505.75> 612 56<328.748 578.182>
LayerCount: 3
Fore
SplineSet
645 -4 m 2
 637 -4 l 2
 624 -4 619 8 613 17 c 0
 590 49 568 91 524 135 c 2
 176 480 l 2
 162 493 154 506 148 506 c 0
 141 506 141 498 141 477 c 0
 141 318 142 206 143 93 c 0
 143 54 149 48 216 40 c 0
 222 39 235 37 243 36 c 1
 243 36 247 26 247 17 c 0
 247 9 242 -1 242 -1 c 1
 242 -1 159 2 122 2 c 0
 69 2 20 0 20 0 c 1
 18 5 17 11 17 16 c 0
 17 24 19 31 21 35 c 1
 88 49 81 50 82 72 c 0
 86 130 89 267 89 381 c 0
 89 412 88 441 88 467 c 0
 88 494 88 519 86 540 c 0
 84 557 68 576 54 584 c 0
 46 589 34 595 34 595 c 1
 34 595 32 603 33 610 c 0
 34 620 38 627 38 627 c 1
 49 627 132 625 154 623 c 0
 162 622 180 610 197 588 c 0
 227 548 597 174 604 174 c 0
 608 174 612 400 612 526 c 0
 612 555 602 576 592 578 c 2
 532 588 l 1
 529 593 527 601 527 609 c 0
 527 616 529 622 533 627 c 1
 563 626 605 623 636 623 c 0
 660 623 688 627 713 627 c 0
 723 627 730 627 740 626 c 1
 743 621 743 615 743 609 c 0
 743 601 742 592 740 587 c 1
 714 587 l 2
 681 587 670 581 668 548 c 0
 661 430 656 307 656 188 c 0
 656 90 662 43 662 14 c 0
 662 4 662 -4 645 -4 c 2
EndSplineSet
EndChar

StartChar: O
Encoding: 79 79 14
Width: 695
VWidth: 0
Flags: W
HStem: -18 52<275.647 460.436> 576 52<239.504 418.573>
VStem: 20 102<211.199 412.569> 574 100<192.461 393.605>
LayerCount: 3
Fore
SplineSet
348 -18 m 0
 174 -18 20 95 20 298 c 0
 20 480 162 628 346 628 c 0
 539 628 674 483 674 316 c 0
 674 96 507 -18 348 -18 c 0
320 576 m 0
 212 576 122 468 122 338 c 0
 122 154 236 34 371 34 c 0
 490 34 574 130 574 258 c 0
 574 416 496 576 320 576 c 0
EndSplineSet
EndChar

StartChar: P
Encoding: 80 80 15
Width: 531
VWidth: 0
Flags: W
HStem: -2 42<25.0131 85.6823 184.823 279.857> 226 44<180.596 332.886> 591 38<42.2387 91.8317 202.609 340.701>
VStem: 86 93<46.5011 231 271.627 322.69> 98 87<293.316 577.057> 414 93<347.352 521.554>
LayerCount: 3
Fore
SplineSet
414 435 m 0xec
 414 535 353 591 266 591 c 0
 220 591 197 586 191 539 c 0
 187 510 185 472 185 462 c 2
 181 274 l 1
 181 274 205 270 235 270 c 0
 286 270 414 285 414 435 c 0xec
98 545 m 0
 98 575 85 585 63 585 c 0
 58 585 47 584 42 584 c 1
 38 589 36 596 36 603 c 0
 36 611 38 619 41 624 c 1
 41 624 149 629 249 629 c 0
 333 629 507 609 507 431 c 0
 507 312 391 226 273 226 c 0
 233 226 183 231 180 231 c 1
 180 231 179 201 179 155 c 2
 179 80 l 2
 179 60 196 41 225 41 c 2
 275 41 l 1
 279 36 280 30 280 23 c 0
 280 14 278 5 275 -1 c 1
 275 -1 181 0 140 0 c 0
 110 0 82 -2 52 -2 c 2
 30 -2 l 1
 27 5 25 12 25 20 c 0
 25 26 26 34 29 40 c 1
 74 40 l 2
 87 40 85 53 86 67 c 0xf4
 94 245 98 392 98 545 c 0
EndSplineSet
EndChar

StartChar: Q
Encoding: 81 81 16
Width: 707
VWidth: 0
Flags: W
HStem: -281 44<550.231 687.479> 582 46<268.175 437.952>
VStem: 26 102<175.605 409.298> 580 101<190.262 424.021>
LayerCount: 3
Fore
SplineSet
354 582 m 0
 211 582 128 422 128 292 c 0
 128 144 226 23 342 23 c 0
 532 23 580 197 580 322 c 0
 580 480 462 582 354 582 c 0
247 -1 m 0
 122 42 26 136 26 294 c 0
 26 476 166 628 350 628 c 0
 543 628 681 479 681 312 c 0
 681 144 570 27 440 -7 c 0
 418 -13 410 -14 410 -24 c 0
 410 -29 411 -35 414 -44 c 0
 429 -91 460 -139 480 -165 c 0
 511 -204 584 -237 632 -237 c 0
 652 -237 686 -234 686 -234 c 1
 689 -238 691 -243 691 -249 c 0
 691 -253 690 -257 689 -261 c 1
 689 -261 666 -281 610 -281 c 0
 525 -281 441 -248 392 -191 c 0
 371 -166 330 -105 313 -54 c 0
 297 -6 294 -17 247 -1 c 0
EndSplineSet
EndChar

StartChar: R
Encoding: 82 82 17
Width: 565
VWidth: 0
Flags: W
HStem: -3 41<25.0087 52.5 467.166 544.993> 264 38<178.664 270.048> 583 36<47.1187 79.6668> 590 38<188.934 332.83>
VStem: 92 86<43.8627 266 302.809 323.125> 101 77<315.769 581.9> 405 87<367.44 525.112>
LayerCount: 3
Fore
SplineSet
101 555 m 0xd6
 101 569 98 580 80 582 c 0
 73 583 59 583 53 583 c 1
 49 590 47 596 47 604 c 0
 47 610 48 614 51 619 c 1xe6
 51 619 124 628 249 628 c 0
 333 628 492 585 492 448 c 0
 492 381 454 330 402 304 c 0
 391 299 374 290 362 286 c 0
 349 281 348 279 348 276 c 0
 348 267 350 263 356 248 c 0
 392 161 442 58 494 40 c 0
 511 34 542 32 542 32 c 1
 544 26 545 22 545 17 c 0
 545 9 543 1 540 -4 c 1
 532 -6 514 -6 501 -6 c 0
 394 -6 323 90 275 238 c 0
 268 260 262 264 239 264 c 0
 208 264 178 266 176 266 c 1
 176 266 179 201 179 155 c 2
 179 80 l 2
 179 60 188 42 217 40 c 2
 243 38 l 1
 247 33 248 27 248 20 c 0
 248 11 246 2 243 -4 c 1
 243 -4 181 0 140 0 c 0
 103 0 82 0 30 -3 c 1
 27 4 25 10 25 18 c 0
 25 24 28 32 31 38 c 1
 74 40 l 2
 87 41 92 60 92 74 c 0xda
 97 253 101 399 101 555 c 0xd6
405 444 m 0
 405 544 336 590 248 590 c 0
 202 590 181 583 181 536 c 0
 181 489 178 439 178 386 c 2xd6
 178 304 l 1xda
 192 303 216 302 232 302 c 0
 312 302 405 323 405 444 c 0
EndSplineSet
EndChar

StartChar: S
Encoding: 83 83 18
Width: 534
VWidth: 0
Flags: W
HStem: -18 46<160.662 346.166> 590 44<208.559 365.438>
VStem: 33 37<139.012 173.783> 73 84<429.662 535.076> 407 95<80.35 203.489> 407 41<622 638.994>
LayerCount: 3
Fore
SplineSet
254 28 m 0xf8
 352 28 407 80 407 138 c 0xf8
 407 313 73 237 73 459 c 0
 73 574 198 634 308 634 c 0
 347 634 405 622 405 622 c 1
 407 635 l 1
 413 637 421 639 428 639 c 0
 435 639 442 637 448 635 c 1xf4
 452 564 457 535 468 466 c 1
 459 460 450 460 437 459 c 1
 427 482 l 2
 408 526 402 542 374 562 c 0
 352 578 343 590 286 590 c 0
 200 590 157 533 157 486 c 0
 157 327 502 370 502 158 c 0
 502 30 379 -18 242 -18 c 4
 189 -18 136 -12 93 -12 c 0
 83 -12 77 -13 73 -13 c 0
 66 -13 64 -10 61 6 c 0
 52 61 43 110 33 164 c 1
 40 170 50 175 60 175 c 0
 63 175 67 174 70 173 c 1
 80 153 93 129 105 108 c 0
 114 93 123 78 137 66 c 0
 162 44 206 28 254 28 c 0xf8
EndSplineSet
EndChar

StartChar: T
Encoding: 84 84 19
Width: 616
VWidth: 0
Flags: W
HStem: -3 43<168.006 255.408 359.409 446.931> 578 53<81.998 263.599 355.21 538.673>
VStem: 10 32<474.143 525.056> 263 88<47.8117 574.046> 556 31<474.045 553.805>
AnchorPoint: "l;bl" 120 10 basechar 0
AnchorPoint: "l;x" 40 360 basechar 0
AnchorPoint: "l;hi" 0 580 basechar 0
AnchorPoint: "l;o" 80 180 basechar 0
AnchorPoint: "r;bl" 496 10 basechar 0
AnchorPoint: "r;x" 576 360 basechar 0
AnchorPoint: "r;hi" 616 580 basechar 0
AnchorPoint: "r;o" 536 180 basechar 0
LayerCount: 3
Fore
SplineSet
314 621 m 0
 347 621 381 622 529 626 c 0
 546 626 569 630 584 630 c 0
 599 630 606 624 606 614 c 0
 606 607 601 575 599 559 c 0
 596 531 594 508 587 476 c 1
 585 475 580 474 574 474 c 0
 567 474 559 475 556 476 c 1
 553 492 553 510 550 528 c 0
 543 575 513 576 413 576 c 0
 373 576 356 576 355 555 c 0
 352 476 351 412 351 349 c 2
 351 187 l 2
 351 168 351 139 352 117 c 0
 354 71 355 48 383 45 c 0
 393 44 420 41 443 40 c 1
 445 36 447 27 447 22 c 0
 447 13 446 7 443 -1 c 1
 443 -1 350 3 298 3 c 0
 265 3 223 -3 195 -3 c 2
 173 -3 l 1
 170 3 168 10 168 18 c 0
 168 26 170 34 174 40 c 1
 203 41 l 2
 253 43 263 42 263 136 c 2
 263 382 l 2
 263 440 265 504 265 559 c 0
 265 568 263 574 251 575 c 0
 238 576 218 578 199 578 c 0
 184 578 170 578 154 577 c 0
 116 575 74 561 61 533 c 0
 51 510 48 498 42 477 c 1
 39 475 34 474 29 474 c 0
 22 474 14 476 10 479 c 1
 12 523 15 526 19 559 c 8
 22 582 23 597 26 619 c 0
 27 627 36 631 46 631 c 0
 57 631 86 628 107 627 c 0
 196 622 288 621 314 621 c 0
EndSplineSet
EndChar

StartChar: U
Encoding: 85 85 20
Width: 792
VWidth: 0
Flags: W
HStem: -12 46<289.139 525.818> 582 45<545.431 628 694.978 760.856> 591 35<35.3761 94.2097 192.484 256.716> 612 20G<32 48.5 244.5 260>
VStem: 93 88<140.124 585.083> 634 51<162.641 573.658>
LayerCount: 3
Fore
SplineSet
547 627 m 1xcc
 575 624 628 623 660 623 c 0
 689 623 728 626 756 627 c 1xcc
 760 623 761 616 761 609 c 0
 761 601 760 592 758 586 c 1
 734 585 l 2
 698 584 695 569 694 550 c 0
 691 503 686 440 685 356 c 0
 683 155 656 -12 391 -12 c 0
 254 -12 107 28 96 172 c 0
 94 200 93 240 93 283 c 0
 93 390 98 516 98 519 c 0
 98 537 98 554 95 570 c 0
 92 592 69 593 53 593 c 2
 33 593 l 1
 30 599 28 606 28 613 c 0
 28 619 30 627 34 632 c 1x9c
 63 629 115 626 147 626 c 0
 179 626 231 629 258 631 c 1
 262 627 263 621 263 614 c 0
 263 606 262 597 260 591 c 1
 241 591 l 2xac
 207 591 189 588 187 550 c 0
 185 515 181 412 181 323 c 0
 181 299 181 276 182 256 c 0
 188 136 210 34 421 34 c 0
 620 34 634 186 634 367 c 0
 634 432 634 503 628 560 c 0
 627 573 614 579 586 582 c 0
 576 583 554 584 545 584 c 1
 542 590 541 599 541 606 c 0
 541 614 543 622 547 627 c 1xcc
EndSplineSet
EndChar

StartChar: V
Encoding: 86 86 21
Width: 700
VWidth: 1
Flags: W
HStem: 589 40<24.0122 63.3801 173.289 225.949 501.007 564.549 640.334 677.972>
LayerCount: 3
Fore
SplineSet
28 589 m 1
 25 595 24 601 24 608 c 0
 24 615 25 623 29 629 c 1
 59 628 95 628 127 628 c 0
 159 628 190 628 221 629 c 1
 225 625 226 619 226 612 c 0
 226 604 225 595 223 589 c 1
 195 589 l 2
 179 589 173 585 173 562 c 0
 173 546 313 253 362 152 c 0
 370 135 378 121 380 121 c 0
 384 121 389 135 397 152 c 0
 441 250 566 532 566 554 c 0
 566 570 565 583 536 586 c 0
 526 587 514 588 505 588 c 1
 502 594 501 602 501 610 c 0
 501 618 502 624 506 629 c 1
 538 629 549 624 592 624 c 0
 625 624 646 630 673 630 c 1
 677 626 678 619 678 611 c 0
 678 603 677 594 675 589 c 1
 639 585 612 540 576 456 c 2
 470 211 l 1
 435 135 407 57 379 -10 c 0
 376 -16 372 -18 366 -18 c 0
 360 -18 354 -16 351 -10 c 0
 265 175 163 380 102 500 c 0
 71 561 60 589 28 589 c 1
EndSplineSet
EndChar

StartChar: W
Encoding: 87 87 22
Width: 956
VWidth: 0
Flags: W
HStem: 589 40<24.0122 64.8839 173.112 224.949 271.012 318.49 421.375 464.949 519.07 572.887 640.01 687.972 751.028 813.226 895.049 931.935>
DStem2: 497 386 356 500 0.433018 -0.901385<-191.155 0 37.2768 70.9351 104.516 295.937> 374 150 474 259 0.459738 0.888055<-41.5243 142.772 266.129 454.22>
LayerCount: 3
Fore
SplineSet
28 589 m 1
 25 595 24 601 24 608 c 0
 24 615 25 623 29 629 c 1
 59 628 95 626 127 626 c 0
 159 626 190 628 221 629 c 1
 224 623 225 617 225 611 c 0
 225 603 223 595 221 589 c 1
 195 589 l 2
 179 589 173 587 173 564 c 0
 173 548 294 252 334 152 c 0
 341 135 351 114 353 114 c 0
 357 114 366 133 374 150 c 0
 389 184 420 242 451 302 c 1
 356 500 l 2
 316 584 309 589 275 589 c 1
 272 597 271 604 271 610 c 0
 271 617 272 623 276 629 c 1
 306 628 345 628 377 628 c 0
 409 628 429 628 460 629 c 1
 464 625 465 619 465 612 c 0
 465 604 464 595 462 589 c 1
 445 589 l 2
 429 589 421 585 421 562 c 0
 421 554 457 472 497 386 c 1
 539 469 575 547 575 558 c 0
 575 579 558 589 523 589 c 1
 521 594 519 600 519 607 c 0
 519 614 521 621 524 626 c 1
 563 625 580 622 602 622 c 0
 631 622 639 626 683 627 c 1
 687 623 688 619 688 611 c 0
 688 603 687 594 685 589 c 1
 649 587 642 577 617 532 c 0
 590 484 558 411 521 338 c 1
 611 152 l 2
 621 132 625 121 629 121 c 0
 633 121 637 131 647 152 c 0
 691 250 815 536 815 558 c 0
 815 586 790 586 755 586 c 1
 753 592 751 599 751 607 c 0
 751 615 752 622 756 626 c 1
 788 626 799 624 842 624 c 0
 875 624 900 625 927 625 c 1
 931 621 932 614 932 606 c 0
 932 598 931 590 929 585 c 1
 886 582 863 532 824 444 c 2
 721 211 l 2
 687 135 657 57 629 -10 c 0
 626 -16 622 -18 616 -18 c 0
 610 -18 604 -16 601 -10 c 2
 474 259 l 1
 339 -5 l 2
 336 -11 332 -13 326 -13 c 0
 320 -13 311 -11 309 -5 c 0
 236 179 157 380 103 500 c 0
 75 562 60 587 28 589 c 1
EndSplineSet
Layer: 2
SplineSet
28 589 m 5
 25 595 24 601 24 608 c 4
 24 615 25 623 29 629 c 5
 59 628 95 628 127 628 c 4
 159 628 190 628 221 629 c 5
 225 625 226 619 226 612 c 4
 226 604 225 595 223 589 c 5
 195 589 l 6
 179 589 173 585 173 562 c 4
 173 546 292 252 332 152 c 4
 339 135 348 121 350 121 c 4
 354 121 369 135 377 152 c 4
 392 186 420 242 451 302 c 5
 352 500 l 6
 321 561 310 589 278 589 c 5
 275 595 274 601 274 608 c 4
 274 615 275 623 279 629 c 5
 309 628 345 628 377 628 c 4
 409 628 429 628 460 629 c 5
 464 625 465 619 465 612 c 4
 465 604 464 595 462 589 c 5
 445 589 l 6
 429 589 423 585 423 562 c 4
 423 554 457 479 497 393 c 5
 539 476 575 547 575 558 c 4
 575 574 575 583 546 586 c 4
 536 587 524 588 515 588 c 5
 512 594 511 602 511 610 c 4
 511 618 512 624 516 629 c 5
 548 629 559 624 602 624 c 4
 635 624 656 630 683 630 c 5
 687 626 688 619 688 611 c 4
 688 603 687 594 685 589 c 5
 667 588 l 6
 632 584 583 468 520 344 c 5
 612 152 l 6
 620 135 628 121 630 121 c 4
 634 121 639 135 647 152 c 4
 691 250 815 536 815 558 c 4
 815 586 790 586 755 586 c 5
 750 597 749 617 756 626 c 5
 788 626 799 624 842 624 c 4
 875 624 900 625 927 625 c 5
 931 621 932 614 932 606 c 4
 932 598 929 589 927 584 c 5
 917 583 l 6
 869 578 804 393 720 211 c 4
 685 135 657 57 629 -10 c 4
 626 -16 622 -18 616 -18 c 4
 610 -18 604 -16 601 -10 c 6
 474 255 l 5
 450 211 l 5
 409 138 367 57 339 -10 c 4
 336 -16 332 -18 326 -18 c 4
 320 -18 314 -16 311 -10 c 4
 225 175 163 380 102 500 c 4
 71 561 60 589 28 589 c 5
EndSplineSet
EndChar

StartChar: X
Encoding: 88 88 23
Width: 666
VWidth: 0
Flags: W
HStem: 0 35<149.539 209.833 411.014 466.998 598.323 639.641> 589 40<19.5622 78.0176 193.001 244.941 464.013 500.528 594.992 644.981>
DStem2: 334 370 278 310 0.60704 -0.794671<-247.601 10.3371 70.3218 333.815> 278 292 196 139 0.6801 0.733119<-257.757 4.20938 96.586 359.465>
LayerCount: 3
Fore
SplineSet
207 35 m 1
 209 31 210 26 210 21 c 0
 210 14 208 6 206 0 c 1
 176 0 140 4 125 4 c 0
 90 4 22 -1 22 -1 c 1
 22 -1 17 9 17 17 c 0
 17 26 21 36 21 36 c 1
 33 41 43 42 62 63 c 2
 278 292 l 2
 286 300 285 301 278 310 c 2
 108 533 l 2
 85 563 74 580 46 587 c 0
 40 589 33 589 26 589 c 1
 23 596 19 606 19 615 c 0
 19 620 20 625 23 629 c 1
 53 628 95 627 127 627 c 0
 159 627 209 628 240 629 c 1
 244 625 245 619 245 612 c 0
 245 604 244 597 242 591 c 1
 229 591 l 2
 194 591 193 584 193 575 c 0
 193 554 301 412 334 370 c 0
 344 358 343 358 353 370 c 2
 434 464 l 2
 475 512 514 552 514 564 c 0
 514 572 512 584 501 586 c 0
 491 587 477 588 468 588 c 1
 466 594 464 602 464 610 c 0
 464 616 465 621 468 625 c 1
 482 624 514 624 557 624 c 0
 590 624 614 626 641 626 c 1
 644 623 645 615 645 610 c 0
 645 602 642 595 640 589 c 1
 610 587 595 570 579 554 c 0
 531 509 466 434 420 385 c 2
 377 339 l 2
 371 332 367 331 373 323 c 2
 462 211 l 2
 525 132 584 40 636 37 c 1
 638 33 640 29 640 24 c 0
 640 15 638 5 635 -1 c 1
 635 -1 579 2 526 2 c 0
 489 2 416 -3 416 -3 c 1
 416 -3 411 9 411 17 c 0
 411 26 415 39 415 39 c 1
 415 39 432 40 456 42 c 0
 464 43 467 46 467 51 c 0
 467 62 452 81 438 101 c 2
 320 262 l 2
 313 272 313 271 305 262 c 0
 285 241 235 186 196 139 c 0
 168 105 146 80 146 62 c 0
 146 40 190 40 207 35 c 1
EndSplineSet
EndChar

StartChar: Y
Encoding: 89 89 24
Width: 694
VWidth: 1
Flags: W
HStem: -4 43<183.172 269.746> 3 39<193.334 270.408 373.539 462.991> 592 38<16.2043 76.0627 188.004 246.924 463.552 529.363 613.584 669.998>
VStem: 278 88<45.5262 320.125>
LayerCount: 3
Fore
SplineSet
366 188 m 2xb0
 366 169 366 140 367 118 c 0
 369 72 370 43 398 42 c 2
 458 40 l 1
 461 34 463 28 463 22 c 0
 463 14 460 5 455 -2 c 1
 455 -2 365 3 313 3 c 0x70
 278 3 220 -3 192 -4 c 1
 188 0 183 12 183 20 c 0
 183 26 185 33 189 39 c 1
 218 40 l 2
 268 42 278 43 278 137 c 2
 278 270 l 2
 278 287 277 293 270 302 c 2
 108 534 l 2
 87 565 74 581 46 588 c 0
 40 590 28 590 21 590 c 1
 18 597 16 607 16 616 c 0
 16 621 17 626 20 630 c 1
 50 629 95 628 127 628 c 0
 159 628 211 629 242 630 c 1
 246 626 247 620 247 613 c 0
 247 605 244 598 242 592 c 1
 229 592 l 2
 194 592 188 585 188 576 c 0
 188 554 306 392 338 348 c 0
 347 335 348 339 357 350 c 2
 451 465 l 2
 492 514 531 553 531 565 c 0
 531 591 494 592 470 592 c 1
 468 599 463 607 463 616 c 0
 463 620 464 624 467 629 c 1
 524 629 531 625 574 625 c 0
 607 625 639 627 666 627 c 1
 669 624 670 616 670 611 c 0
 670 603 667 598 665 592 c 1
 630 592 609 571 593 555 c 0
 526 491 445 386 385 318 c 0
 376 308 366 299 366 279 c 2
 366 188 l 2xb0
EndSplineSet
EndChar

StartChar: Z
Encoding: 90 90 25
Width: 686
VWidth: 0
Flags: W
HStem: 4 43<182.998 537.426> 579 44<142.484 455.114> 583 49<425.5 503.991>
LayerCount: 3
Fore
SplineSet
476 583 m 0xa0
 354 583 308 582 227 579 c 0xc0
 211 578 143 577 116 532 c 0
 92 491 72 435 59 413 c 1
 56 412 51 410 47 410 c 0
 38 410 28 414 25 419 c 1
 40 476 59 572 75 632 c 0xa0
 77 641 88 645 95 645 c 0
 113 645 126 626 128 625 c 0
 164 623 213 623 247 623 c 0xc0
 366 623 474 627 637 632 c 1
 650 626 654 613 655 602 c 1
 526 470 311 232 183 62 c 0
 175 51 172 47 190 47 c 2
 426 47 l 2
 499 47 527 50 561 91 c 0
 590 125 639 201 639 201 c 1
 662 198 669 184 669 184 c 1
 638 117 615 56 590 -7 c 0
 584 -22 583 -30 566 -30 c 0
 553 -30 551 -26 546 -14 c 0
 542 -5 544 -1 530 -1 c 0
 419 -1 289 4 246 4 c 0
 188 4 122 2 53 -7 c 1
 42 -4 35 7 33 20 c 1
 38 32 52 44 73 66 c 0
 130 128 139 138 178 188 c 0
 282 318 387 420 501 566 c 0
 504 570 504 572 504 575 c 0
 504 583 492 583 476 583 c 0xa0
EndSplineSet
EndChar

StartChar: a
Encoding: 97 97 26
Width: 384
VWidth: 0
Flags: HW
LayerCount: 3
Fore
SplineSet
31 84 m 0
 31 148 88 172 202 181 c 0
 213 182 223 183 234 184 c 1
 234 236 l 2
 234 299 192 313 168 313 c 0
 153 313 141 306 138 298 c 0
 130 272 134 271 104 260 c 2
 92 256 l 2
 84 253 72 248 62 248 c 0
 54 248 47 251 47 263 c 0
 47 289 77 316 101 330 c 0
 133 350 174 362 204 362 c 0
 271 362 306 325 306 264 c 0
 306 214 301 112 301 88 c 0
 301 52 313 42 329 42 c 0
 339 42 358 52 363 52 c 0
 371 52 373 41 373 31 c 0
 373 25 367 23 358 18 c 0
 339 9 300 -7 283 -7 c 0
 250 -7 246 6 235 43 c 1
 214 27 167 -3 131 -3 c 0
 52 -3 31 46 31 84 c 0
104 93 m 0
 104 52 136 40 162 40 c 0
 186 40 224 62 234 72 c 1
 234 156 l 1
 224 155 213 154 202 152 c 0
 138 142 104 138 104 93 c 0
EndSplineSet
Layer: 2
SplineSet
31 82 m 4
 31 168 153 174 234 182 c 5x79
 234 236 l 6x72
 234 299 192 313 168 313 c 4
 153 313 140 306 138 298 c 4
 136 291 135 285 133 279 c 4
 127 264 76 248 65 248 c 4
 52 248 47 255 47 266 c 4
 47 290 71 315 115 338 c 4
 145 353 174 362 204 362 c 4
 271 362 308 325 308 264 c 4x76
 308 214 300 112 300 88 c 4
 300 56 316 46 337 46 c 4
 347 46 355 48 367 52 c 5
 370 49 371 44 371 39 c 4
 371 36 371 32 371 29 c 5
 367 21 314 -8 278 -8 c 4xb1
 239 -8 234 43 234 43 c 5
 212 25 160 -3 128 -3 c 4
 65 -3 31 38 31 82 c 4
104 94 m 4x79
 104 67 124 39 159 39 c 4
 196 39 224 63 234 73 c 5
 234 154 l 5
 180 147 104 147 104 94 c 4x79
EndSplineSet
EndChar

StartChar: b
Encoding: 98 98 27
Width: 446
VWidth: 0
Flags: HW
LayerCount: 3
Back
SplineSet
26 584 m 0
 26 587 27 590 27 592 c 1
 52 608 102 638 133 650 c 1
 140 648 148 644 151 639 c 1xd8
 134 562 138 603 128 307 c 1xd8
 128 307 198 356 263 356 c 0
 345 356 413 296 413 207 c 0
 413 143 393 100 352 63 c 0
 304 19 269 9 224 4 c 0
 200 1 158 0 127 0 c 2
 107 0 l 2
 77 0 54 4 54 38 c 0xe8
 54 108 65 343 65 493 c 0
 65 506 64 519 63 531 c 0
 61 548 56 548 27 577 c 1
 27 579 26 581 26 584 c 0
125 170 m 0xe8
 125 150 125 130 128 108 c 0
 134 67 170 43 218 43 c 0
 304 43 342 106 342 179 c 0
 342 246 288 306 207 306 c 0
 169 306 140 290 127 279 c 1
 126 255 125 232 125 170 c 0xe8
EndSplineSet
Fore
SplineSet
26 584 m 0
 26 596 59 612 75 621 c 0
 92 631 122 649 137 649 c 0
 147 649 150 644 150 637 c 0
 150 630 146 619 145 612 c 0
 135 567 136 562 128 308 c 1
 128 308 198 356 263 356 c 0
 345 356 413 294 413 207 c 0
 413 143 392 101 352 63 c 1
 303 20 269 9 224 4 c 0
 200 1 158 0 127 0 c 2
 107 0 l 2
 77 0 54 4 54 38 c 0
 54 109 65 351 65 501 c 0
 65 532 64 542 42 562 c 0
 38 566 26 573 26 584 c 0
125 163 m 0
 125 145 125 128 128 108 c 0
 134 67 170 43 218 43 c 0
 301 43 342 101 342 171 c 0
 342 247 290 306 207 306 c 0
 171 306 140 289 127 278 c 1
 126 256 125 223 125 163 c 0
EndSplineSet
EndChar

StartChar: c
Encoding: 99 99 28
Width: 357
VWidth: 0
Flags: HW
LayerCount: 3
Back
SplineSet
23 159 m 0
 23 230 62 291 118 328 c 0
 154 352 197 368 241 368 c 0
 250 368 331 362 331 320 c 0
 331 298 308 276 287 276 c 0
 259 276 229 312 200 312 c 0
 133 312 107 247 107 188 c 0
 107 66 178 44 223 44 c 0
 261 44 293 66 308 77 c 1
 313 72 321 61 324 49 c 1
 307 24 246 -5 194 -5 c 0
 87 -5 23 67 23 159 c 0
EndSplineSet
Fore
SplineSet
23 159 m 0
 23 230 62 291 118 328 c 0
 152 351 196 366 238 366 c 0
 271 366 331 356 331 320 c 0
 331 298 311 276 286 276 c 0
 255 276 229 312 200 312 c 0
 133 312 107 247 107 188 c 0
 107 66 178 44 223 44 c 0
 270 44 303 75 307 75 c 0
 314 75 321 65 321 54 c 0
 321 40 309 34 294 24 c 0
 271 8 227 -5 194 -5 c 0
 87 -5 23 67 23 159 c 0
EndSplineSet
EndChar

StartChar: d
Encoding: 100 100 29
Width: 450
VWidth: 0
Flags: HW
LayerCount: 3
Back
SplineSet
16 170 m 4
 16 278 112 361 211 361 c 4
 268 361 310 339 310 339 c 5
 310 339 315 467 315 518 c 4
 315 544 308 548 266 573 c 5
 263 580 265 590 266 593 c 5
 284 608 352 648 382 656 c 5
 389 653 394 646 396 641 c 5
 386 569 373 526 373 149 c 6
 373 65 l 6
 373 47 377 39 390 39 c 4
 397 39 420 47 431 49 c 5
 433 47 434 41 434 34 c 4
 434 27 433 19 432 14 c 5x70
 413 9 350 -9 313 -22 c 5
 306 -18 304 -14 304 -14 c 5
 305 44 l 5
 305 44 244 -2 186 -2 c 4xb0
 89 -2 16 81 16 170 c 4
92 205 m 4
 92 133 131 55 218 55 c 4
 262 55 294 66 305 75 c 5
 308 270 l 5
 292 301 238 322 214 322 c 4
 134 322 92 267 92 205 c 4
EndSplineSet
Fore
SplineSet
16 170 m 0
 16 279 112 361 211 361 c 0
 268 361 310 339 310 339 c 1
 310 339 315 467 315 518 c 0
 315 540 310 546 284 562 c 0
 278 566 263 571 263 583 c 0
 263 598 295 613 320 627 c 0
 343 640 373 656 381 656 c 0
 392 656 396 650 396 642 c 0
 396 638 391 612 389 596 c 0
 382 537 373 451 373 149 c 2
 373 56 l 2
 373 43 374 37 382 37 c 0
 387 37 407 44 418 47 c 0
 431 51 434 51 434 34 c 0
 434 16 433 14 418 10 c 0
 361 -6 330 -22 318 -22 c 0
 310 -22 308 -16 308 -4 c 2
 308 42 l 1
 300 40 257 -2 186 -2 c 0
 89 -2 16 78 16 170 c 0
92 200 m 0
 92 126 137 51 217 51 c 0
 243 51 272 57 305 75 c 1
 308 270 l 1
 292 301 243 323 214 323 c 0
 132 323 92 265 92 200 c 0
EndSplineSet
Layer: 2
SplineSet
16 170 m 0
 16 278 112 361 211 361 c 0
 268 361 310 339 310 339 c 1
 310 339 315 467 315 518 c 0
 315 540 310 546 284 562 c 0
 278 566 263 571 263 583 c 0
 263 598 295 613 320 627 c 0
 343 640 373 656 381 656 c 0
 392 656 396 650 396 642 c 0
 396 638 391 612 389 596 c 0
 382 537 373 451 373 149 c 2
 373 59 l 2
 373 45 374 38 385 38 c 0
 390 38 407 44 418 47 c 0
 431 51 434 51 434 34 c 0
 434 16 433 14 418 10 c 0
 362 -3 330 -22 318 -22 c 0
 310 -22 308 -16 308 -4 c 2
 308 42 l 1
 300 40 257 -2 186 -2 c 0xb0
 89 -2 16 81 16 170 c 0
92 200 m 0
 92 126 137 51 217 51 c 0
 243 51 272 57 305 75 c 1
 308 270 l 1
 292 301 238 322 214 322 c 0
 132 322 92 265 92 200 c 0
EndSplineSet
EndChar

StartChar: e
Encoding: 101 101 30
Width: 368
VWidth: 0
Flags: HW
LayerCount: 3
Back
SplineSet
25 152 m 0
 25 233 54 299 108 333 c 0
 133 349 162 360 195 360 c 0
 257 360 297 316 321 262 c 1
 325 260 328 259 331 256 c 1
 331 254 332 252 332 248 c 0
 332 241 330 233 328 227 c 5
 257 216 166 195 107 181 c 1
 107 181 106 173 106 162 c 0
 106 103 138 46 199 46 c 0
 263 46 300 81 320 98 c 1
 329 91 334 83 334 65 c 1
 298 25 244 -7 181 -7 c 0
 86 -7 25 64 25 152 c 0
110 215 m 1
 240 248 l 1
 240 248 220 320 171 320 c 0
 118 320 110 215 110 215 c 1
EndSplineSet
Fore
SplineSet
25 168 m 0
 25 243 57 298 108 333 c 0
 132 350 162 360 195 360 c 0
 272 360 302 300 323 261 c 1
 329 262 330 263 335 263 c 0
 342 263 343 246 343 240 c 0
 343 233 340 230 332 229 c 0
 262 216 160 194 105 181 c 1
 105 111 134 45 202 45 c 0
 279 45 309 97 320 97 c 0
 332 97 335 79 335 72 c 0
 335 56 265 -7 184 -7 c 0
 91 -7 25 65 25 168 c 0
107 212 m 1
 107 212 169 229 241 246 c 1
 241 246 220 320 171 320 c 0
 114 320 107 212 107 212 c 1
EndSplineSet
Layer: 2
SplineSet
25 168 m 4
 25 243 57 298 108 333 c 4
 132 350 162 360 195 360 c 4
 272 360 302 300 323 261 c 5
 329 262 330 263 335 263 c 4
 342 263 343 246 343 240 c 4
 343 233 340 230 332 229 c 4
 262 216 160 194 105 181 c 5
 105 113 133 46 199 46 c 4
 285 46 309 97 320 97 c 4
 332 97 335 79 335 72 c 4
 335 56 261 -7 183 -7 c 4
 88 -7 25 65 25 168 c 4
107 212 m 5
 107 212 169 229 241 246 c 5
 241 246 220 320 171 320 c 4
 114 320 107 212 107 212 c 5
EndSplineSet
EndChar

StartChar: f
Encoding: 102 102 31
Width: 294
VWidth: 0
Flags: HW
LayerCount: 3
Back
SplineSet
22 331 m 4x9c
 22 340 24 349 26 353 c 5
 84 351 l 5
 84 480 101 536 172 594 c 4
 199 616 241 649 307 649 c 4
 351 649 366 628 366 602 c 4
 366 578 357 557 331 557 c 4
 308 557 281 585 251 585 c 4
 167 585 154 456 154 386 c 6
 154 351 l 5x9c
 154 351 266 354 274 354 c 5
 276 348 277 338 277 328 c 4
 277 317 276 306 273 300 c 5x2c
 263 300 152 307 152 307 c 5
 152 221 152 187 155 65 c 4
 156 35 193 45 228 41 c 5
 229 36 229 29 229 23 c 4
 229 15 229 6 228 3 c 5x5c
 219 2 211 2 202 2 c 6
 156 2 l 6
 118 2 74 -2 54 -2 c 4
 48 -2 38 -2 28 1 c 5
 26 8 25 13 25 19 c 4
 25 24 26 28 27 32 c 5
 61 42 81 40 81 71 c 6
 84 307 l 5
 31 307 l 5
 25 312 22 319 22 331 c 4x9c
EndSplineSet
Fore
SplineSet
22 331 m 0
 22 351 25 352 38 352 c 0
 42 352 81 351 84 351 c 1
 84 466 101 536 172 594 c 0
 199 616 240 649 306 649 c 0
 352 649 366 628 366 602 c 0
 366 578 357 557 331 557 c 0
 303 557 286 586 245 586 c 0
 231 586 222 582 213 576 c 0
 161 543 154 446 154 370 c 2
 154 351 l 1
 154 351 249 354 261 354 c 0
 276 354 277 347 277 331 c 2
 277 323 l 2
 277 308 274 302 261 302 c 0
 252 302 158 307 152 307 c 1
 152 221 152 187 155 63 c 0
 156 43 164 42 192 42 c 2
 213 42 l 2
 227 42 230 38 230 23 c 0
 230 4 227 2 212 2 c 2
 108 2 l 2
 96 2 45 -3 40 -3 c 0
 26 -3 25 8 25 26 c 0
 25 32 32 34 43 36 c 0
 68 41 81 43 81 73 c 2
 84 307 l 1
 84 307 48 308 39 308 c 0
 24 308 22 310 22 331 c 0
EndSplineSet
Layer: 2
SplineSet
22 331 m 4x9c
 22 351 25 353 38 353 c 4
 42 353 84 351 84 351 c 5
 84 466 101 536 172 594 c 4
 199 616 240 649 306 649 c 4
 352 649 366 628 366 602 c 4
 366 578 357 557 331 557 c 4
 303 557 286 586 245 586 c 4
 231 586 222 582 213 576 c 4
 157 540 154 437 154 351 c 5x9c
 154 351 249 354 261 354 c 4
 276 354 277 347 277 331 c 6
 277 323 l 6
 277 308 274 302 261 302 c 4
 252 302 152 307 152 307 c 5
 152 221 152 187 155 63 c 4
 156 43 164 42 192 42 c 6
 213 42 l 6
 223 42 230 39 230 23 c 4
 230 6 227 2 212 2 c 6
 108 2 l 6
 96 2 45 -3 40 -3 c 4
 26 -3 25 8 25 26 c 4
 25 32 32 34 43 36 c 4
 68 41 81 43 81 73 c 6
 84 307 l 5
 84 307 48 308 39 308 c 4
 22 308 22 310 22 331 c 4x9c
EndSplineSet
EndChar

StartChar: g
Encoding: 103 103 32
Width: 420
VWidth: 0
Flags: HW
LayerCount: 3
Back
SplineSet
68 -144 m 4
 68 -188 124 -213 192 -213 c 4xc880
 251 -213 337 -190 337 -129 c 4
 337 -91 298 -73 237 -69 c 4
 216 -68 191 -66 167 -65 c 5
 126 -73 68 -99 68 -144 c 4
-2 -160 m 4xe880
 -2 -92 116 -58 116 -58 c 5
 116 -58 22 -40 22 -4 c 4xe4
 22 42 106 50 140 56 c 5
 84 81 25 106 25 195 c 4
 25 302 113 355 183 355 c 4xd2
 215 355 240 346 257 337 c 5
 284 340 347 344 393 344 c 5xe2
 395 341 397 328 397 315 c 4
 397 307 396 299 394 293 c 5
 296 294 l 5
 296 294 337 254 337 202 c 4
 337 117 264 70 208 57 c 4
 183 51 118 33 118 16 c 4xe5
 118 -6 198 -10 238 -10 c 4
 292 -10 326 -10 361 -37 c 4
 388 -58 397 -72 397 -102 c 4
 397 -153 365 -185 325 -212 c 4
 277 -244 223 -263 175 -263 c 4
 114 -263 -2 -248 -2 -160 c 4xe880
93 224 m 4xd3
 93 162 128 94 205 94 c 4
 252 94 274 141 274 181 c 4
 274 242 232 313 162 313 c 4
 121 313 93 272 93 224 c 4xd3
EndSplineSet
Fore
SplineSet
-2 -160 m 0
 -2 -91 110 -60 110 -57 c 0
 110 -55 22 -42 22 -4 c 0
 22 52 140 51 140 57 c 0
 140 61 25 85 25 193 c 0
 25 302 113 355 183 355 c 0
 215 355 240 345 257 336 c 1
 281 339 350 344 372 344 c 0
 395 344 397 336 397 323 c 2
 397 315 l 2
 397 297 393 295 385 295 c 2
 295 295 l 1
 295 295 337 254 337 202 c 0
 337 117 264 70 208 57 c 0
 183 51 118 33 118 16 c 0
 118 -8 200 -7 238 -9 c 0
 299 -12 331 -14 361 -37 c 0
 388 -58 397 -79 397 -102 c 0
 397 -153 365 -185 325 -212 c 0
 277 -244 216 -262 173 -262 c 0
 112 -262 -2 -247 -2 -160 c 0
68 -144 m 0
 68 -188 124 -213 192 -213 c 0
 251 -213 337 -190 337 -129 c 0
 337 -91 298 -73 237 -69 c 0
 216 -68 186 -66 162 -64 c 1
 121 -72 68 -99 68 -144 c 0
93 224 m 0
 93 162 128 94 205 94 c 0
 252 94 274 141 274 181 c 0
 274 242 232 313 162 313 c 0
 121 313 93 272 93 224 c 0
EndSplineSet
Layer: 2
SplineSet
-2 -160 m 4xe880
 -2 -92 111 -57 111 -57 c 5
 111 -57 22 -40 22 -4 c 4xe4
 22 42 106 50 140 56 c 5
 84 81 25 112 25 195 c 4
 25 302 113 355 183 355 c 4xd2
 215 355 240 345 257 336 c 5
 281 339 350 344 372 344 c 4
 397 344 397 336 397 323 c 6
 397 315 l 6
 397 297 393 295 385 295 c 6
 295 295 l 5
 295 295 337 254 337 202 c 4
 337 117 264 70 208 57 c 4
 183 51 118 33 118 16 c 4xe5
 118 -6 198 -9 238 -10 c 4
 298 -11 330 -12 361 -37 c 4
 388 -58 397 -79 397 -102 c 4
 397 -153 365 -185 325 -212 c 4
 277 -244 225 -263 173 -263 c 4
 112 -263 -2 -248 -2 -160 c 4xe880
68 -144 m 4
 68 -188 124 -213 192 -213 c 4xc880
 251 -213 337 -190 337 -129 c 4
 337 -91 298 -73 237 -69 c 4
 216 -68 186 -66 162 -64 c 5
 121 -72 68 -99 68 -144 c 4
93 224 m 4xd3
 93 162 128 94 205 94 c 4
 252 94 274 141 274 181 c 4
 274 242 232 313 162 313 c 4
 121 313 93 272 93 224 c 4xd3
EndSplineSet
EndChar

StartChar: h
Encoding: 104 104 33
Width: 481
VWidth: 0
Flags: HWO
LayerCount: 3
Back
SplineSet
20 12 m 4
 20 18 21 26 22 29 c 5
 38 34 65 29 67 88 c 4xe8
 70 190 74 337 74 423 c 4
 74 476 73 478 72 512 c 4
 70 547 67 544 31 571 c 5
 30 575 29 582 32 587 c 5
 59 607 120 638 146 650 c 5
 153 647 156 645 159 639 c 5
 159 634 153 610 150 594 c 4
 146 574 145 563 144 537 c 4
 142 462 140 326 140 290 c 5xd8
 192 343 238 354 268 354 c 4
 360 354 399 291 399 228 c 4
 399 209 397 111 397 73 c 4
 397 32 422 38 456 36 c 5
 459 32 461 26 461 19 c 4
 461 13 460 7 457 0 c 5
 389 -1 l 6
 333 -2 317 -2 302 -2 c 4
 298 -2 285 -2 278 0 c 5
 277 6 277 12 277 16 c 4
 277 22 277 26 278 29 c 5
 319 37 326 31 326 80 c 4
 326 105 328 161 328 186 c 4
 328 266 295 306 236 306 c 4
 203 306 159 290 140 264 c 5xd8
 140 234 139 184 139 140 c 4
 139 96 140 57 144 49 c 4
 150 36 160 38 200 34 c 5
 202 30 203 22 203 16 c 4
 203 10 202 4 200 2 c 5
 148 2 78 -3 47 -3 c 4
 33 -3 25 -2 21 2 c 4
 20 4 20 8 20 12 c 4
EndSplineSet
Fore
SplineSet
21 22 m 0
 21 30 27 29 33 31 c 0
 46 35 66 36 68 88 c 0
 72 197 74 328 74 408 c 0
 74 475 74 475 72 512 c 0
 71 541 69 547 47 559 c 0
 33 567 30 571 30 579 c 0
 30 592 66 609 84 619 c 0
 108 632 140 650 146 650 c 0
 150 650 159 647 159 639 c 0
 159 630 154 616 150 594 c 0
 146 574 145 563 144 537 c 0
 142 462 140 327 140 291 c 1
 194 342 240 354 268 354 c 0
 360 354 399 291 399 228 c 0
 399 209 397 111 397 73 c 0
 397 39 408 35 440 35 c 0
 456 35 461 35 461 19 c 0
 461 7 460 0 444 0 c 2
 375 0 l 2
 349 0 295 -3 291 -3 c 0
 281 -3 276 -1 276 16 c 0
 276 31 283 30 296 31 c 0
 316 33 325 35 326 70 c 0
 326 96 328 161 328 186 c 0
 328 266 295 306 236 306 c 0
 205 306 169 292 140 264 c 1
 140 232 139 174 139 128 c 0
 139 93 139 63 144 49 c 0
 148 37 154 36 187 36 c 0
 201 36 204 34 204 16 c 0
 204 3 201 2 191 2 c 0
 78 2 57 -3 36 -3 c 0
 24 -3 21 4 21 22 c 0
EndSplineSet
Layer: 2
SplineSet
21 22 m 4
 21 30 27 29 33 31 c 4
 46 35 66 36 68 88 c 4xe8
 71 190 74 337 74 423 c 4
 74 476 74 478 72 512 c 4
 71 541 69 546 47 559 c 4
 32 568 30 566 30 579 c 4
 30 592 66 609 84 619 c 4
 108 632 140 650 146 650 c 4
 150 650 159 647 159 639 c 4
 159 630 154 616 150 594 c 4
 146 574 145 563 144 537 c 4
 142 462 140 327 140 291 c 5xd8
 194 342 238 354 268 354 c 4
 360 354 399 291 399 228 c 4
 399 209 397 111 397 73 c 4
 397 39 408 35 440 35 c 4
 456 35 461 35 461 19 c 4
 461 7 460 0 444 0 c 6
 367 0 l 6
 363 0 295 -3 291 -3 c 4
 281 -3 276 -1 276 16 c 4
 276 31 283 30 296 31 c 4
 316 33 325 35 326 70 c 4
 327 96 328 161 328 186 c 4
 328 266 295 306 236 306 c 4
 203 306 169 292 140 264 c 5xd8
 140 234 139 184 139 140 c 4
 139 96 140 58 143 49 c 4
 147 38 150 36 183 36 c 4
 199 36 203 36 203 16 c 4
 203 3 200 2 190 2 c 4
 77 2 57 -3 36 -3 c 4
 24 -3 21 4 21 22 c 4
EndSplineSet
EndChar

StartChar: i
Encoding: 105 105 34
Width: 256
VWidth: 0
Flags: HW
LayerCount: 3
Back
SplineSet
42 15 m 6
 42 25 l 5xb8
 62 38 82 32 84 62 c 4
 86 89 86 125 86 158 c 6
 86 250 l 6
 86 273 82 279 46 296 c 5
 43 300 43 306 45 316 c 5
 76 331 123 358 152 368 c 5
 162 366 168 359 168 356 c 4
 168 349 159 259 159 219 c 6
 159 62 l 6
 159 34 171 39 220 38 c 5
 221 33 221 27 221 22 c 4
 221 16 221 11 220 5 c 5x78
 84 3 87 -5 47 -5 c 5
 43 0 42 12 42 15 c 6
88 538 m 4x34
 88 562 109 583 133 583 c 4
 157 583 178 562 178 538 c 4
 178 514 157 493 133 493 c 4
 109 493 88 514 88 538 c 4x34
EndSplineSet
Fore
SplineSet
41 15 m 0
 41 28 47 29 56 30 c 0
 72 32 83 40 84 62 c 0
 86 89 86 125 86 158 c 2
 86 255 l 2
 86 273 84 275 64 287 c 0
 52 294 43 295 43 307 c 0
 43 317 56 321 96 342 c 0
 116 352 146 368 155 368 c 0
 165 368 168 359 168 356 c 0
 168 349 159 308 159 199 c 2
 159 62 l 2
 159 39 171 38 200 38 c 0
 218 38 223 38 223 22 c 0
 223 13 223 3 212 3 c 0
 204 3 116 2 116 2 c 2
 103 2 70 -5 52 -5 c 0
 43 -5 41 4 41 15 c 0
88 538 m 0x34
 88 562 109 583 133 583 c 0
 157 583 178 562 178 538 c 0
 178 514 157 493 133 493 c 0
 109 493 88 514 88 538 c 0x34
EndSplineSet
EndChar

StartChar: j
Encoding: 106 106 35
Width: 226
VWidth: 0
Flags: HW
LayerCount: 3
Back
SplineSet
-44 -200 m 4xe8
 -44 -178 -28 -159 -7 -159 c 4
 18 -159 27 -191 50 -191 c 4
 75 -191 83 -155 85 -123 c 4
 87 -96 87 -68 87 -40 c 4
 87 62 84 164 81 264 c 4
 81 278 61 285 36 295 c 5
 34 301 35 309 36 315 c 5
 75 331 128 360 144 368 c 5
 149 367 155 363 158 359 c 5
 158 339 154 274 154 187 c 4
 154 129 155 87 155 30 c 4
 155 -11 151 -64 146 -102 c 4
 136 -178 78 -242 13 -242 c 4
 -19 -242 -44 -230 -44 -200 c 4xe8
80 539 m 4xf0
 80 562 99 581 122 581 c 4
 145 581 164 562 164 539 c 4
 164 516 145 497 122 497 c 4
 99 497 80 516 80 539 c 4xf0
EndSplineSet
Fore
SplineSet
-44 -200 m 0xe8
 -44 -178 -28 -159 -7 -159 c 0
 18 -159 27 -191 50 -191 c 0
 75 -191 83 -155 85 -123 c 0
 87 -96 87 -68 87 -40 c 0
 87 62 84 164 81 264 c 0
 81 274 71 281 56 287 c 0
 38 294 34 294 34 303 c 0
 34 318 37 317 94 342 c 0
 117 352 142 368 146 368 c 0
 150 368 158 365 158 357 c 0
 158 349 154 266 154 187 c 0
 154 129 155 87 155 30 c 0
 155 -11 151 -64 146 -102 c 0
 136 -178 78 -242 12 -242 c 0
 -20 -242 -44 -230 -44 -200 c 0xe8
80 539 m 0xf0
 80 562 99 581 122 581 c 0
 145 581 164 562 164 539 c 0
 164 516 145 497 122 497 c 0
 99 497 80 516 80 539 c 0xf0
EndSplineSet
EndChar

StartChar: k
Encoding: 107 107 36
Width: 480
VWidth: 0
Flags: HW
LayerCount: 3
Back
SplineSet
32 15 m 4
 32 19 33 22 33 25 c 5xb0
 83 47 75 47 79 180 c 4
 83 313 83 394 83 517 c 4
 83 533 76 542 70 547 c 6
 43 568 l 5
 41 571 39 579 43 586 c 5
 72 606 135 639 149 644 c 5
 159 642 164 639 170 632 c 5
 157 578 150 571 150 200 c 5
 239 259 283 284 283 298 c 4
 283 309 252 311 239 313 c 5
 237 315 237 319 237 323 c 4
 237 330 238 338 240 340 c 5
 369 340 425 344 433 344 c 5
 435 342 436 333 436 325 c 4
 436 320 436 314 434 312 c 5
 358 308 313 263 210 202 c 5
 256 157 373 35 462 35 c 5
 464 32 465 25 465 18 c 4
 465 11 464 4 463 1 c 5
 450 0 434 0 423 0 c 4x70
 304 0 270 62 156 165 c 5
 147 159 l 5
 148 64 l 6
 148 35 170 37 204 33 c 5
 205 29 206 24 206 19 c 4
 206 13 205 8 204 4 c 5
 165 3 87 -3 50 -3 c 4xb0
 33 -3 32 2 32 15 c 4
EndSplineSet
Fore
SplineSet
32 15 m 0
 32 30 40 30 52 32 c 0
 82 37 76 67 79 180 c 0
 83 313 83 394 83 517 c 0
 83 542 64 552 58 557 c 0
 49 564 41 566 41 577 c 0
 41 590 53 593 98 619 c 0
 113 628 148 646 157 646 c 0
 165 646 168 641 168 634 c 0
 168 624 165 616 163 607 c 0
 154 566 150 497 150 200 c 1
 239 259 283 284 283 298 c 0
 283 310 263 314 247 314 c 0
 238 314 237 314 237 326 c 0
 237 340 237 341 249 341 c 0
 288 341 378 343 427 343 c 0
 435 343 437 343 437 332 c 2
 437 326 l 2
 437 315 436 313 425 313 c 0
 370 313 309 260 210 202 c 1
 268 145 379 35 453 35 c 0
 464 35 465 32 465 26 c 2
 465 20 l 2
 465 10 464 0 456 0 c 2
 423 0 l 2x70
 304 0 270 62 156 165 c 1
 147 159 l 1
 148 64 l 2
 148 40 156 35 189 35 c 0
 202 35 206 34 206 19 c 0
 206 3 202 3 187 3 c 0
 102 3 66 -3 50 -3 c 0xb0
 33 -3 32 2 32 15 c 0
EndSplineSet
EndChar

StartChar: l
Encoding: 108 108 37
Width: 243
VWidth: 0
Flags: HW
HStem: -4 34<33.0026 69.5131> 5 32<155.589 215.941> 626 20G<131 151.5>
VStem: 78 69<42.9473 554.661>
LayerCount: 3
Back
SplineSet
33 15 m 4
 33 21 33 26 34 30 c 5xb0
 48 33 68 35 70 47 c 4
 74 68 77 86 78 184 c 4
 80 318 82 373 82 503 c 4
 82 542 65 550 41 566 c 5
 39 573 39 586 41 593 c 5
 79 614 115 634 147 646 c 5
 156 644 164 637 166 633 c 5
 154 584 151 568 150 505 c 4
 148 334 147 260 147 104 c 4
 147 53 150 37 213 37 c 5x70
 215 32 216 26 216 18 c 4
 216 13 215 8 214 5 c 5x70
 150 4 91 1 35 -4 c 5
 33 0 33 8 33 15 c 4
EndSplineSet
Fore
SplineSet
32 7 m 0
 32 22 33 27 43 28 c 0
 60 30 68 35 70 45 c 0
 74 66 78 86 79 184 c 0
 81 318 82 373 82 503 c 0
 82 535 74 544 56 557 c 0
 46 564 39 568 39 581 c 0
 39 593 40 593 90 619 c 0
 131 640 138 645 147 645 c 0
 159 645 164 639 164 633 c 0
 164 627 162 618 161 612 c 0
 153 578 151 558 150 505 c 0
 148 334 147 260 147 104 c 0
 147 59 150 37 193 37 c 0
 195 37 202 38 208 38 c 0
 212 38 217 36 217 23 c 0
 217 6 213 5 205 5 c 0
 131 5 47 -4 42 -4 c 0
 35 -4 32 -3 32 7 c 0
EndSplineSet
EndChar

StartChar: m
Encoding: 109 109 38
Width: 699
VWidth: 0
Flags: HW
HStem: -4 32<26.0593 69.062 154.682 205.953 251.052 301.884 377.634 432 489.011 534.628 616.276 675.964> 293 57<213.22 290.101 429.549 509.322>
VStem: 82 65<36.3436 263.125> 311 63<32.9828 267.518> 540 68<46.037 259.316>
LayerCount: 3
Back
SplineSet
26 13 m 0
 26 18 27 23 28 30 c 1
 50 36 74 34 78 71 c 0
 79 85 82 143 82 160 c 0
 82 180 82 193 79 244 c 0
 78 263 47 272 30 280 c 1
 29 283 28.91015625 285.78515625 28.91015625 288.944335938 c 0
 28.91015625 294.055664062 30 299 31 303 c 1
 68 327 104 350 132 366 c 1
 137 365 145 363 148 359 c 1
 148 359 147 312 147 277 c 1
 179 311 231 353 281 353 c 0
 340 353 356 310 368 277 c 1
 380 290 428 352 500 352 c 0
 574 352 610 277 610 189 c 0
 610 153 608 129 608 93 c 0
 608 35 619 35 673 35 c 1
 676 28 676 23 676 17 c 0
 676 10 675 4 673 -1 c 1
 640 -1 598 1 581 1 c 0
 552 1 523 0 491 0 c 1
 490 5 489 9 489 14 c 0
 489 20 490 25 491 30 c 1
 526 40 534 43 535 48 c 0
 539 70 540 100 540 116 c 2
 540 131 l 2
 540 213 535 293 461 293 c 0
 426 293 394 278 374 249 c 1
 376 229 376 191 376 170 c 0
 376 134 374 90 374 61 c 0
 374 33 406 31 431 28 c 1
 432 25 432 21 432 15 c 0
 432 10 432 4 430 -1 c 1
 408 0 366 2 361 2 c 0
 324 2 312 1 256 -4 c 1
 253 2 251 9 251 17 c 0
 251 21 252 25 253 29 c 1
 287 35 300 34 303 51 c 0
 310 86 311 123 311 168 c 0
 311 232 309 296 239 296 c 0
 212 296 184 279 169 267 c 0
 152 254 147 246 147 200 c 0
 147 149 149 83 153 49 c 1
 161 36 185 32 203 31 c 1
 205 25 206 19 206 13 c 0
 206 9 205 3 204 -1 c 1
 90 -1 88 -2 29 -2 c 1
 27 4 26 9 26 13 c 0
EndSplineSet
Fore
SplineSet
26 13 m 0
 26 27 27 30 42 32 c 0
 60 34 75 42 78 71 c 0
 79 85 82 143 82 160 c 0
 82 180 82 193 79 244 c 0
 78 257 64 265 50 271 c 0
 40 275 29 277 29 289 c 0
 29 309 35 306 77 333 c 0
 111 355 126 366 134 366 c 1
 144 363 146 361 146 352 c 2
 144 274 l 1
 176 308 231 353 281 353 c 0
 340 353 356 310 368 277 c 1
 380 290 428 352 500 352 c 0
 574 352 610 277 610 189 c 0
 610 153 608 129 608 93 c 0
 608 39 618 36 662 32 c 0
 676 31 676 28 676 17 c 0
 676 4 676 -1 662 -1 c 0
 631 -1 596 1 581 1 c 0
 557 1 532 0 506 0 c 0
 492 0 489 1 489 14 c 0
 489 28 491 32 502 33 c 0
 528 36 536 40 537 52 c 0
 539 74 540 100 540 116 c 2
 540 131 l 2
 540 213 535 293 461 293 c 0
 426 293 394 278 374 249 c 1
 376 229 376 191 376 170 c 0
 376 134 374 90 374 61 c 0
 374 38 387 32 418 31 c 0
 430 31 433 27 433 21 c 0
 433 10 432 -2 422 -2 c 0
 414 -2 376 2 346 2 c 0
 312 2 274 -3 264 -3 c 0
 252 -3 251 3 251 17 c 0
 251 28 254 30 264 31 c 0
 289 34 300 36 303 51 c 0
 310 86 311 123 311 168 c 0
 311 232 309 296 239 296 c 0
 212 296 184 279 169 267 c 0
 152 254 147 246 147 200 c 0
 147 154 149 91 151 59 c 0
 152 39 167 32 186 32 c 0
 204 32 206 29 206 13 c 0
 206 2 205 -2 193 -2 c 0
 166 -1 148 0 116 0 c 0
 71 0 68 -3 38 -3 c 0
 27 -3 26 4 26 13 c 0
EndSplineSet
EndChar

StartChar: n
Encoding: 110 110 39
Width: 481
VWidth: 0
Flags: HW
LayerCount: 3
Fore
SplineSet
28 15 m 0
 28 20 29 26 30 32 c 1
 70 42 79 31 79 91 c 0
 79 130 79 169 78 207 c 0
 77 254 78 266 69 273 c 0
 61 280 44 285 30 292 c 1xd8
 29 295 28 299 28 304 c 0
 28 308 29 311 30 314 c 1
 63 336 108 360 134 370 c 1xb8
 134 370 143 364 148 358 c 1
 150 350 150 337 150 324 c 0
 150 310 150 293 149 281 c 1
 189 320 245 354 294 354 c 0
 366 354 393 292 393 205 c 0
 393 133 390 96 390 73 c 0
 390 29 427 44 452 36 c 1
 454 33 454 26 454 20 c 0
 454 15 454 9 453 6 c 1
 358 4 316 0 277 0 c 1
 275 5 275 10 275 15 c 0
 275 20 275 25 277 30 c 1
 305 37 317 33 319 63 c 0
 320 84 321 118 321 153 c 0
 321 174 321 195 320 210 c 0
 318 250 305 292 246 292 c 0xd8
 213 292 166 274 151 261 c 1
 151 227 150 210 150 170 c 0
 150 134 150 112 152 77 c 0
 154 32 172 37 209 33 c 1
 210 31 211 25 211 21 c 0
 211 13 209 6 208 3 c 1
 116 3 97 -3 31 -3 c 1
 29 3 28 9 28 15 c 0
EndSplineSet
EndChar

StartChar: o
Encoding: 111 111 40
Width: 413
VWidth: 0
Flags: HW
HStem: -6 41<166.271 272.072> 318 40<148.147 246.284>
VStem: 25 83<100.084 257.058> 308 80<87.9263 246.662>
AnchorPoint: "l;o" 0 180 basechar 0
AnchorPoint: "r;o" 413 180 basechar 0
LayerCount: 3
Fore
SplineSet
25 168 m 0
 25 269 101 358 212 358 c 0
 319 358 388 270 388 182 c 0
 388 59 297 -6 211 -6 c 0
 115 -6 25 55 25 168 c 0
108 198 m 0
 108 104 157 35 219 35 c 0
 278 35 308 87 308 158 c 0
 308 230 264 318 195 318 c 0
 149 318 108 269 108 198 c 0
EndSplineSet
EndChar

StartChar: p
Encoding: 112 112 41
Width: 430
VWidth: 5
Flags: HW
HStem: -265 30<24.0232 59.2432> -262 35<140.045 201.709> -6 41<155.162 283.403> 306 48<164.138 270.827>
VStem: 69 65<-223.125 7 54.7774 280.436> 328 64<91.1161 242.664>
LayerCount: 3
Fore
SplineSet
24 -251 m 0
 24 -244 26 -237 29 -235 c 1
 51 -229 68 -229 68 -176 c 0
 68 -116 69 16 69 123 c 0
 69 177 69 224 68 253 c 0
 67 274 41 283 25 293 c 0
 25 294 24 296 24 298 c 0
 24 305 27 314 29 318 c 1
 64 339 98 359 120 374 c 1
 124 373 131 370 134 365 c 1
 132 313 l 1
 180 345 205 354 244 354 c 0
 312 354 392 300 392 184 c 0xbc
 392 72 312 -6 212 -6 c 0
 173 -6 133 7 133 7 c 1
 135 -171 l 2
 136 -230 148 -225 200 -227 c 1
 201 -230 202 -234 202 -239 c 0
 202 -247 200 -256 199 -262 c 1x7c
 106 -262 84 -266 58 -266 c 0
 40 -266 48 -266 28 -265 c 1
 25 -262 24 -256 24 -251 c 0
132 284 m 1
 134 73 l 1
 160 46 188 35 220 35 c 0
 289 35 328 83 328 161 c 0
 328 229 282 306 210 306 c 0
 158 306 132 284 132 284 c 1
EndSplineSet
EndChar

StartChar: q
Encoding: 113 113 42
Width: 454
VWidth: -5
Flags: HW
HStem: -267 38<234.379 298.959> -261 39<261.415 299.862 380.566 423.916> -7 57<160.338 277.473> 315 44<148.868 283.198>
VStem: 28 75<112.272 254.738> 310 66<-195.113 34> 317 69<71.4642 281.994>
LayerCount: 3
Fore
SplineSet
28 165 m 0
 28 285 124 359 232 359 c 0
 282 359 310 343 336 329 c 1
 350 338 372 352 380 356 c 1
 386 355 391 347 393 344 c 1
 393 344 387 304 386 272 c 0xba
 383 170 376 -40 376 -143 c 0
 376 -167 377 -184 378 -189 c 0
 380 -205 382 -222 414 -222 c 2
 422 -222 l 1
 423 -224 424 -229 424 -235 c 0
 424 -244 424 -255 418 -261 c 1x7c
 332 -261 269 -267 261 -267 c 0xbc
 256 -267 242 -267 234 -258 c 1
 234 -249 234 -240 240 -229 c 1
 266 -225 297 -224 297 -224 c 1
 308 -162 310 34 310 34 c 1xbc
 277 9 226 -7 191 -7 c 0
 110 -7 28 57 28 165 c 0
103 191 m 0
 103 111 158 50 227 50 c 0
 290 50 312 69 312 69 c 1
 315 122 317 147 317 223 c 0x3a
 317 283 268 315 220 315 c 0
 150 315 103 270 103 191 c 0
EndSplineSet
EndChar

StartChar: r
Encoding: 114 114 43
Width: 332
VWidth: -2
Flags: HW
HStem: -3 21G<78.5 109> 3 39<162.748 250.927> 276 82<223.125 291.004>
VStem: 88 69<48.9005 256.568>
LayerCount: 3
Fore
SplineSet
47 300 m 0
 47 306 48 312 51 316 c 1
 82 333 121 358 149 372 c 1
 154 371 161 370 166 365 c 1
 166 365 162 316 159 275 c 1xb0
 197 313 235 358 272 358 c 0
 306 358 311 329 311 305 c 0
 311 294 305 256 277 256 c 0
 253 256 248 276 228 276 c 0
 203 276 177 261 159 235 c 1
 159 195 157 150 157 107 c 0
 157 50 169 42 206 42 c 2
 245 42 l 1
 249 36 251 28 251 20 c 0
 251 14 250 9 248 3 c 1x70
 169 2 137 -3 81 -3 c 0
 76 -3 68 -2 52 2 c 1
 50 5 49 11 49 16 c 0
 49 24 51 32 52 36 c 1
 62 39 74 41 78 48 c 0
 88 65 88 225 88 244 c 0
 88 267 83 270 49 286 c 1
 48 290 47 295 47 300 c 0
EndSplineSet
EndChar

StartChar: s
Encoding: 115 115 44
Width: 330
VWidth: -5
Flags: HW
LayerCount: 3
Fore
SplineSet
38 68 m 0
 38 83 39 102 42 118 c 1
 46 120 51 122 55 122 c 0
 59 122 64 121 68 119 c 1
 103 62 111 35 155 35 c 0
 191 35 216 56 216 88 c 0
 216 174 48 146 48 268 c 0
 48 341.873646296 128.999118622 365.122843454 192.093219677 365.122843454 c 0
 213.132474818 365.122843454 246.010702819 360.326198121 257 353 c 1
 261 329 269 297 272 274 c 1
 269 265 257 262 247 262 c 1
 231 286 201 324 163 324 c 0
 135 324 113 306 113 284 c 0
 113 209 293 233 293 107 c 0
 293 32 225 -8 142 -8 c 0
 92 -8 58 -1 41 9 c 1
 39 28 38 47 38 68 c 0
EndSplineSet
EndChar

StartChar: t
Encoding: 116 116 45
Width: 308
VWidth: 3
Flags: HW
HStem: -6 60<160.73 237.785> 307 54<154 275.592>
VStem: 73 74<65.4538 305.892> 80 71<152.432 303>
LayerCount: 3
Fore
SplineSet
33 334 m 1
 77 368 101 394 140 432 c 0
 142 433 144 433 146 433 c 0
 150 433 154 432 157 429 c 1
 154 357 l 1
 171 357 221 361 251 361 c 0
 263 361 269 360 273 359 c 1
 274 351 276 341 276 331 c 0
 276 322 275 313 271 307 c 1
 151 309 l 1xd0
 151 309 147 180 147 151 c 0
 147 102 150 54 202 54 c 0
 235 54 266 81 266 81 c 1
 273 77 278 67 280 59 c 1xe0
 273 36 220 -6 172 -6 c 0
 96 -6 73 45 73 115 c 0xe0
 73 133 80 303 80 303 c 1
 37 304 l 1
 33 317 33 321 33 334 c 1
EndSplineSet
EndChar

StartChar: u
Encoding: 117 117 46
Width: 460
VWidth: 0
Flags: HW
LayerCount: 3
Fore
SplineSet
23 325 m 0
 23 330 23 335 25 339 c 1
 58 349 127 358 145 358 c 1
 152 351 l 1
 138 274 136 150 136 144 c 0
 136 77 160 54 210 54 c 0
 264 54 304 92 304 92 c 1
 306 268 l 2
 306 295 287 302 261 316 c 1
 260 320 259 323 259 327 c 0
 259 331 260 335 262 339 c 1
 269 346 341 358 364 358 c 0
 376 358 385 348 387 344 c 1
 380 278 376 253 376 113 c 0
 376 87 376 55 384 53 c 1
 438 64 l 1
 448 61 448 52 448 45 c 0
 448 39 447 33 446 28 c 1
 426 22 366 4 324 -10 c 1
 316 -9 307 -7 304 0 c 1
 305 60 l 1
 305 60 241 -8 164 -8 c 0
 104 -8 60 31 60 98 c 0
 60 143 69 261 69 274 c 0
 69 287 47 304 24 313 c 1
 23 317 23 321 23 325 c 0
EndSplineSet
EndChar

StartChar: v
Encoding: 118 118 47
Width: 408
VWidth: 4
Flags: W
HStem: 323 31<127.521 181.993 256.027 290.563>
VStem: 299 91<283 342.5>
LayerCount: 3
Fore
SplineSet
12 336 m 0
 12 354 17 356 33 356 c 2
 52 356 l 2
 97 356 170 354 179 354 c 1
 181 350 182 345 182 339 c 0
 182 334 181 328 179 323 c 1
 147 321 127 322 127 303 c 0
 127 283 167 190 196 107 c 0
 201 93 205 92 211 107 c 0
 229 154 299 274 299 292 c 0
 299 308 285 312 259 320 c 1
 257 325 256 331 256 337 c 0
 256 343 257 350 260 355 c 1
 312 356 341 356 360 356 c 0
 376 356 382 355 386 354 c 1
 386 354 390 345 390 340 c 0
 390 313 374 330 346 278 c 0
 296 186 242 76 201 -3 c 1
 197 -5 190 -7 182 -7 c 0
 174 -7 167 -6 163 -2 c 1
 118 96 71 242 48 286 c 0
 42 298 33 316 14 322 c 1
 13 324 12 330 12 336 c 0
EndSplineSet
EndChar

StartChar: w
Encoding: 119 119 48
Width: 582
VWidth: 0
Flags: HW
LayerCount: 3
Fore
SplineSet
18 331 m 0
 18 341 20 350 24 353 c 1
 26 353 35 354 48 354 c 0
 64 354 155 350 186 350 c 1
 188 343 188 337 188 333 c 0
 188 326 186 322 184 316 c 1
 159 314 130 320 130 291 c 0
 130 282 168 171 186 116 c 0
 191 100 193 109 196 116 c 0
 223 192 272 315 280 343 c 1
 284 346 292 347 298 347 c 0
 307 347 314 345 317 342 c 1
 322 321 357 175 381 113 c 0
 388 94 389 103 393 111 c 0
 416 162 468 275 468 290 c 0
 468 315 435 312 426 315 c 1
 424 324 422 324 422 336 c 0
 422 341 423 345 426 352 c 1
 453 352 511 351 556 351 c 1
 559 343 559 336 559 331 c 0
 559 310 528 304 509 265 c 0
 467 176 416 64 387 -6 c 1
 384 -9 377 -11 371 -11 c 0
 363 -11 354 -9 351 -5 c 1
 330 43 301 143 282 204 c 0
 277 220 274 218 269 205 c 0
 248 146 210 40 192 -8 c 1
 188 -12 180 -12 174 -12 c 0
 166 -12 159 -12 154 -7 c 1
 130 53 74 230 50 290 c 0
 44 306 32 310 19 317 c 1
 18 320 18 325 18 331 c 0
EndSplineSet
EndChar

StartChar: x
Encoding: 120 120 49
Width: 398
VWidth: 0
Flags: HW
LayerCount: 3
Fore
SplineSet
19 16 m 0
 19 23 20 32 24 38 c 1
 41 43 52 55 66 70 c 2
 165 173 l 1
 129 227 114 246 64 304 c 0
 56 314 44 317 37 317 c 1
 34 319 33 325 33 331 c 0
 33 338 35 347 37 350 c 1
 50 353 70 353 90 353 c 0
 152 353 166 352 192 349 c 1
 194 345 195 342 195 338 c 0
 195 334 194 329 193 323 c 1
 172 318 166 316 166 303 c 0
 166 277 201 238 211 217 c 1xc0
 263 281 l 2
 266 285 272 292 272 300 c 0
 272 309 270 314 243 325 c 1
 242 327 241 330 241 334 c 0
 241 339 242 345 246 350 c 1
 316 350 326 353 343 353 c 0
 352 353 360 352 370 350 c 1xa0
 372 345 373 340 373 336 c 0
 373 332 372 328 370 322 c 1
 348 312 277 231 230 188 c 1
 308 79 l 2
 330 48 338 39 374 39 c 1
 376 34 376 30 376 25 c 0
 376 17 376 11 374 4 c 1
 368 2 358 2 346 2 c 0
 311 2 253 4 222 4 c 2
 211 4 l 1
 208 9 205 16 205 23 c 0
 205 28 206 33 209 37 c 1
 232 43 240 47 240 54 c 0
 240 58 237 64 232 72 c 2
 185 144 l 1
 134 82 l 2
 128 74 125 68 125 62 c 0
 125 52 134 44 156 35 c 1
 157 30 158 25 158 21 c 0
 158 17 157 12 156 6 c 1
 118 3 65 3 51 3 c 0
 33 3 40 3 20 5 c 1
 19 8 19 12 19 16 c 0
EndSplineSet
EndChar

StartChar: y
Encoding: 121 121 50
Width: 406
VWidth: 0
Flags: HW
LayerCount: 3
Fore
SplineSet
10 336 m 0
 10 342 11 349 15 357 c 1
 23 359 33 359 40 359 c 0
 65 359 106 357 180 357 c 1
 182 352 183 348 183 342 c 0
 183 336 182 329 180 322 c 1
 146 320 126 325 126 311 c 0
 126 289 190 130 202 96 c 1
 228 145 304 280 304 294 c 0
 304 311 285 314 259 322 c 1
 257 327 257 333 257 338 c 0
 257 344 258 351 260 355 c 1
 266 357 285 357 306 357 c 0
 338 357 376 356 390 356 c 1
 391 352 392 345 392 338 c 0
 392 333 391 328 389 324 c 1
 368 312 360 302 345 273 c 0
 306 198 206 6 129 -135 c 0
 91 -204 89 -230 71 -230 c 0
 63 -230 14 -219 14 -199 c 0
 14 -183 63 -150 90 -104 c 2
 158 14 l 1
 126 95 72 227 46 295 c 0
 42 305 27 314 13 322 c 1
 11 326 10 331 10 336 c 0
EndSplineSet
EndChar

StartChar: z
Encoding: 122 122 51
Width: 384
VWidth: -2
Flags: HW
HStem: 0 43<134 265.619> 306 38<109.328 254>
VStem: 34 316
DStem2: 34 28 134 43 0.59417 0.804339<71.4821 354.324>
LayerCount: 3
Fore
SplineSet
34 28 m 1
 76 85 204 242 254 306 c 1
 196 306 121 306 115 297 c 0
 108 286 108 285 92 242 c 1
 89 241 81 240 76 240 c 0
 72 240 69 240 66 242 c 1
 57 260 50 288 50 322 c 0
 50 334 54 343 71 349 c 1
 151 346 206 344 248 344 c 0
 284 344 312 345 337 345 c 1
 340 341 346 330 346 319 c 1
 292 248 182 116 134 43 c 1
 214 43 l 2
 242 43 258 46 266 50 c 0
 280 56 315 101 327 109 c 1
 333 109 345 106 350 98 c 1
 341 68 317 9 307 -1 c 1
 307 -1 207 0 120 0 c 2
 54 0 l 1
 42 8 38 14 34 28 c 1
EndSplineSet
EndChar

StartChar: zero
Encoding: 48 48 53
Width: 470
VWidth: 0
Flags: W
HStem: -10 40<190.154 297.18> 329 39<166.595 268.35>
VStem: 47 78<105.114 263.684> 336 82<91.6855 251.872>
LayerCount: 3
Fore
SplineSet
418 178 m 0
 418 72 329 -10 231 -10 c 0
 134 -10 47 58 47 168 c 0
 47 278 122 368 234 368 c 0
 343 368 418 276 418 178 c 0
218 329 m 0
 156 329 125 264 125 202 c 0
 125 126 168 30 241 30 c 0
 313 30 336 97 336 163 c 0
 336 235 287 329 218 329 c 0
EndSplineSet
EndChar

StartChar: seven
Encoding: 55 55 54
Width: 424
VWidth: 0
Flags: W
HStem: 275 73<80.1576 322> 381 20G<53.5 61>
VStem: 39 33<351.916 400.842>
LayerCount: 3
Fore
SplineSet
85 358 m 0
 90 349 89 348 104 348 c 2
 310 348 l 2
 332 348 367 352 376 352 c 0
 386 352 392 337 392 327 c 0
 392 315 365 271 357 254 c 0
 281 90 196 -64 113 -221 c 1
 102 -223 92 -224 83 -224 c 0
 74 -224 66 -223 56 -222 c 1
 50 -217 50 -213 48 -206 c 1
 130 -95 201 32 265 162 c 2
 308 250 l 2
 312 258 322 280 322 280 c 1
 271 280 187 278 99 275 c 0
 74 274 87 234 61 234 c 0
 50 234 43 244 43 257 c 0
 43 278 45 296 45 313 c 0
 45 330 39 367 39 386 c 0
 39 395 49 401 58 401 c 0
 64 401 69 399 72 392 c 0
 76 382 80 367 85 358 c 0
EndSplineSet
EndChar

StartChar: eight
Encoding: 56 56 55
Width: 496
VWidth: 0
Flags: W
HStem: -12 41<186.176 311.12> 552 36<204.505 305.515>
VStem: 59 80<77.8598 221.882> 97 75<398.566 512.544> 337 66<392.247 525.841> 354 76<87.2566 202.78>
LayerCount: 3
Fore
SplineSet
430 171 m 0xc4
 430 68 342 -12 236 -12 c 0
 177 -12 124 29 98 54 c 0
 70 81 59 130 59 162 c 0xe4
 59 245 179 300 188 304 c 1
 188 304 97 350 97 449 c 0
 97 525 185 588 257 588 c 0
 331 588 403 544 403 463 c 0xd8
 403 380 345 358 292 331 c 1
 354 305 430 262 430 171 c 0xc4
215 287 m 1
 215 287 139 240 139 151 c 0
 139 89 181 29 242 29 c 0
 304 29 354 66 354 137 c 0
 354 237 215 287 215 287 c 1
172 456 m 0xd8
 172 401 213 376 262 348 c 1
 262 348 337 374 337 465 c 0
 337 509 309 552 256 552 c 0
 198 552 172 504 172 456 c 0xd8
EndSplineSet
EndChar

StartChar: nine
Encoding: 57 57 56
Width: 470
VWidth: 0
Flags: W
HStem: -7 39<185.648 297.736> 331 37<170.805 273.114>
VStem: 47 79<102.492 264.179> 336 81<64.8131 259.612>
LayerCount: 3
Fore
SplineSet
218 331 m 0
 160 331 126 264 126 202 c 0
 126 127 164 32 237 32 c 0
 326 32 336 98 336 162 c 0
 336 256 291 331 218 331 c 0
307 16 m 1
 276 2 245 -7 223 -7 c 0
 117 -7 47 70 47 168 c 0
 47 279 122 368 234 368 c 0
 353 368 417 269 417 154 c 0
 417 127 411 99 403 72 c 0
 361 -69 236 -167 94 -217 c 1
 86 -214 80 -199 80 -187 c 1
 178 -130 248 -87 307 16 c 1
EndSplineSet
EndChar

StartChar: R.001
Encoding: 65536 -1 57
Width: 671
VWidth: 0
Flags: W
HStem: -4 36<25.2043 68.375 186.906 250.868> 260 39<178 288.977> 584 44<47.049 100.211 117.962 336.65> 584 33<43.1121 96.125>
VStem: 92 86<40.1758 260 299 323.125> 395 95<365.296 520.704>
LayerCount: 3
Fore
SplineSet
101 555 m 0xec
 101 569 92.1107702763 584 74 584 c 2
 49 584 l 1xec
 46 589 43 595 43 603 c 0
 43 607 44 612 47 617 c 1xdc
 47 617 114 628 239 628 c 0
 339 628 490 585 490 448 c 0
 490 372 459 342 384 292 c 0
 375 286 372 283 372 279 c 0
 372 274 376 269 381 257 c 0
 419 156 537 59 589 41 c 2
 653 19 l 1
 654 16 655 12 655 9 c 0
 655 2 652 -5 649 -10 c 1
 642 -10 l 2
 502 -10 343 83 291 238 c 0
 286 255 281 260 261 260 c 0
 253 260 238 259 230 259 c 0
 194 259 176 260 176 260 c 1
 177 203 177 146 178 88 c 0
 179 63 181 44 208 37 c 0
 219 34 234 33 247 32 c 1
 250 28 251 22 251 17 c 0
 251 10 249 2 246 -4 c 1
 246 -4 181 2 140 2 c 0
 92 2 82 0 30 -3 c 1
 27 4 25 10 25 18 c 0
 25 24 26 29 29 35 c 1
 74 40 l 2
 87 41 92 60 92 74 c 0
 97 253 101 399 101 555 c 0xec
395 441 m 0
 395 510 346 589 257 589 c 0
 229 589 199 587 193 576 c 0
 189 570 188 556 187 544 c 0
 179 469 178 384 178 299 c 1
 211 299 l 2
 248 299 288 300 318 312 c 0
 366 331 395 388 395 441 c 0
EndSplineSet
EndChar

StartChar: T.001
Encoding: 65537 -1 58
Width: 674
VWidth: 0
Flags: W
HStem: -4 45<196.053 286.865 385.288 476.328> 581 48<91.3708 295.99 391.788 584.876>
VStem: 21 30<510.11 549.106> 61 32<647.281 670.736> 293 88<45.6189 576.762> 594 29<501.485 565.561>
LayerCount: 3
Fore
SplineSet
470 -3 m 1
 470 -3 389 1 327 1 c 0
 297 1 246 -5 231 -5 c 0
 221 -5 212 -5 202 -4 c 1
 198 4 196 12 196 20 c 0
 196 27 197 34 201 41 c 1
 252 42 l 2
 290 43 292 61 293 135 c 2
 296 561 l 2
 296 575 282 581 265 581 c 2
 145 581 l 2
 115 581 84 580 72 561 c 0
 63 546 51 513 51 513 c 1
 46 512 44 510 38 510 c 0
 31 510 27 513 21 520 c 1
 22 531 21 538 25 550 c 0
 36 586 47 635 61 668 c 1
 65 670 69 671 73 671 c 0
 81 671 88 668 93 664 c 1
 93 659 91 653 91 647 c 0
 91 638 93 629 105 629 c 0
 272 629 317 623 455 623 c 0
 485 623 520 624 562 625 c 0
 602 626 610 634 616 646 c 0
 620 654 624 667 624 667 c 1
 627 668 630 669 634 669 c 0
 642 669 650 666 655 662 c 1
 647 621 633 550 623 503 c 1
 616 499 601 500 594 504 c 1
 591 524 596 557 586 566 c 1
 562 578 540 580 486 580 c 2
 430 580 l 2
 413 580 408 580 391 577 c 1
 386 572 381 562 381 553 c 2
 381 117 l 1
 382 33 386 42 474 40 c 1
 476 36 477 31 477 26 c 0
 477 15 473 2 470 -3 c 1
EndSplineSet
EndChar

StartChar: period
Encoding: 46 46 59
Width: 232
VWidth: 0
Flags: W
HStem: -9 112<73.9218 162.078>
VStem: 62 112<2.92178 91.0782>
LayerCount: 3
Fore
SplineSet
62 47 m 0
 62 78 87 103 118 103 c 0
 149 103 174 78 174 47 c 0
 174 16 149 -9 118 -9 c 0
 87 -9 62 16 62 47 c 0
EndSplineSet
EndChar

StartChar: colon
Encoding: 58 58 60
Width: 232
VWidth: 0
Flags: W
HStem: -9 112<73.9218 162.078> 257 112<73.9218 162.078>
VStem: 62 112<2.92178 91.0782 268.922 357.078>
LayerCount: 3
Fore
SplineSet
62 313 m 0
 62 344 87 369 118 369 c 0
 149 369 174 344 174 313 c 0
 174 282 149 257 118 257 c 0
 87 257 62 282 62 313 c 0
62 47 m 0
 62 78 87 103 118 103 c 0
 149 103 174 78 174 47 c 0
 174 16 149 -9 118 -9 c 0
 87 -9 62 16 62 47 c 0
EndSplineSet
EndChar

StartChar: semicolon
Encoding: 59 59 61
Width: 232
VWidth: 0
Flags: W
HStem: 3 98<66.104 131.674> 257 112<73.9218 162.078>
VStem: 62 112<268.922 357.078> 137 47<-67.1177 47>
LayerCount: 3
Fore
SplineSet
62 313 m 0xe0
 62 344 87 369 118 369 c 0
 149 369 174 344 174 313 c 0
 174 282 149 257 118 257 c 0
 87 257 62 282 62 313 c 0xe0
55 47 m 0
 55 78 80 101 111 101 c 0
 142 101 184 76 184 18 c 0
 184 -76 120 -122 72 -160 c 0
 70 -161 66 -162 64 -162 c 0
 62 -162 45 -154 45 -140 c 0
 45 -138 50 -132 54 -129 c 0
 80 -112 135 -59 137 -22 c 0xd0
 137 -15 137 -8 132 -2 c 0
 125 8 121 3 106 3 c 0
 86 3 55 11 55 47 c 0
EndSplineSet
EndChar

StartChar: comma
Encoding: 44 44 62
Width: 232
VWidth: 0
Flags: W
HStem: 3 98<66.104 131.674>
VStem: 137 47<-67.1177 47>
LayerCount: 3
Fore
SplineSet
55 47 m 0
 55 78 80 101 111 101 c 0
 142 101 184 76 184 18 c 0
 184 -76 120 -122 72 -160 c 0
 70 -161 66 -162 64 -162 c 0
 62 -162 45 -154 45 -140 c 0
 45 -138 50 -132 54 -129 c 0
 80 -112 135 -59 137 -22 c 0
 137 -15 137 -8 132 -2 c 0
 125 8 121 3 106 3 c 0
 86 3 55 11 55 47 c 0
EndSplineSet
EndChar

StartChar: hyphen
Encoding: 45 45 63
Width: 206
VWidth: 0
Flags: W
HStem: 139 67<20 184>
VStem: 20 164<139 206>
LayerCount: 3
Fore
SplineSet
42 206 m 2
 164 206 l 2
 177 206 184 202 184 189 c 2
 184 159 l 2
 184 145 181 139 167 139 c 2
 42 139 l 2
 28 139 20 141 20 155 c 2
 20 188 l 2
 20 203 27 206 42 206 c 2
EndSplineSet
EndChar

StartChar: exclam
Encoding: 33 33 64
Width: 261
VWidth: 0
Flags: W
HStem: -9 112<98.9218 187.078> 614 20G<134.5 167.5>
VStem: 87 112<2.92178 91.0782> 97 107<443.784 621.419> 129 34<184.104 392.768>
LayerCount: 3
Fore
SplineSet
129 194 m 0xc8
 123 296 125 399 109 493 c 0
 105 518 97 537 97 568 c 0
 97 603 117 634 152 634 c 0
 183 634 204 603 204 572 c 0xd0
 204 542 197 518 192 495 c 0
 174 404 166 335 163 193 c 0
 163 187 156 184 148 184 c 0
 140 184 129 188 129 194 c 0xc8
87 47 m 0xe0
 87 78 112 103 143 103 c 0
 174 103 199 78 199 47 c 0
 199 16 174 -9 143 -9 c 0
 112 -9 87 16 87 47 c 0xe0
EndSplineSet
EndChar

StartChar: parenleft
Encoding: 40 40 65
Width: 318
VWidth: 0
Flags: W
HStem: 617 20G<223.443 239.5>
VStem: 57 87<71.9062 368.253>
LayerCount: 3
Fore
SplineSet
57 228 m 0
 57 454 232 637 232 637 c 1
 247 632 249 628 258 617 c 1
 258 617 144 505 144 230 c 0
 144 -7 191 -92 244 -175 c 1
 237 -186 230 -189 217 -194 c 1
 146 -116 57 47 57 228 c 0
EndSplineSet
EndChar

StartChar: parenright
Encoding: 41 41 66
Width: 318
VWidth: 0
Flags: W
HStem: 617 20G<91.5 133.5>
VStem: 171 87<74.7468 371.094>
LayerCount: 3
Fore
SplineSet
258 215 m 0
 258 -11 83 -194 83 -194 c 1
 68 -189 66 -185 57 -174 c 1
 57 -174 171 -62 171 213 c 0
 171 450 124 535 71 618 c 1
 78 629 85 632 98 637 c 1
 169 559 258 396 258 215 c 0
EndSplineSet
EndChar

StartChar: question
Encoding: 63 63 67
Width: 394
VWidth: 0
Flags: W
HStem: -9 112<126.922 215.078> 597 32<143.628 252.668>
VStem: 61 69<493.995 574.579> 115 112<2.92178 91.0782> 132 40<189.616 280.464> 297 65<434.486 557.964>
LayerCount: 3
Fore
SplineSet
201 597 m 0xec
 169 597 130 588 130 552 c 0
 130 516 164 534 164 513 c 0
 164 488 120 472 93 472 c 0
 73 472 61 492 61 514 c 0
 61 578 123 629 204 629 c 0
 298 629 362 566 362 476 c 0
 362 317 172 321 172 244 c 0
 172 224 173 220 177 192 c 0
 178 184 169 179 161 179 c 0
 156 179 151 181 148 185 c 0
 136 205 132 225 132 256 c 0
 132 368 220 384 266 424 c 0
 285 441 297 467 297 508 c 0
 297 554 252 597 201 597 c 0xec
115 47 m 0xd4
 115 78 140 103 171 103 c 0
 202 103 227 78 227 47 c 0
 227 16 202 -9 171 -9 c 0
 140 -9 115 16 115 47 c 0xd4
EndSplineSet
EndChar

StartChar: quotedblright
Encoding: 8221 8221 68
Width: 444
VWidth: 0
Flags: W
HStem: 531 98<88.104 153.674 284.104 349.674>
VStem: 159 47<460.882 575> 355 47<460.882 575>
LayerCount: 3
Fore
SplineSet
273 575 m 0
 273 606 298 629 329 629 c 0
 360 629 402 604 402 546 c 0
 402 452 338 406 290 368 c 0
 288 367 284 366 282 366 c 0
 280 366 263 374 263 388 c 0
 263 390 268 396 272 399 c 0
 298 416 353 469 355 506 c 0
 355 513 355 520 350 526 c 0
 343 536 339 531 324 531 c 0
 304 531 273 539 273 575 c 0
77 575 m 0
 77 606 102 629 133 629 c 0
 164 629 206 604 206 546 c 0
 206 452 142 406 94 368 c 0
 92 367 88 366 86 366 c 0
 84 366 67 374 67 388 c 0
 67 390 72 396 76 399 c 0
 102 416 157 469 159 506 c 0
 159 513 159 520 154 526 c 0
 147 536 143 531 128 531 c 0
 108 531 77 539 77 575 c 0
EndSplineSet
EndChar

StartChar: quotedblleft
Encoding: 8220 8220 69
Width: 444
VWidth: 0
Flags: W
HStem: 366 98<119.326 184.896 315.326 380.896>
VStem: 67 47<420 534.118> 263 47<420 534.118>
LayerCount: 3
Fore
SplineSet
196 420 m 4
 196 389 171 366 140 366 c 4
 109 366 67 391 67 449 c 4
 67 543 131 589 179 627 c 4
 181 628 185 629 187 629 c 4
 189 629 206 621 206 607 c 4
 206 605 201 599 197 596 c 4
 171 579 116 526 114 489 c 4
 114 482 114 475 119 469 c 4
 126 459 130 464 145 464 c 4
 165 464 196 456 196 420 c 4
392 420 m 4
 392 389 367 366 336 366 c 4
 305 366 263 391 263 449 c 4
 263 543 327 589 375 627 c 4
 377 628 381 629 383 629 c 4
 385 629 402 621 402 607 c 4
 402 605 397 599 393 596 c 4
 367 579 312 526 310 489 c 4
 310 482 310 475 315 469 c 4
 322 459 326 464 341 464 c 4
 361 464 392 456 392 420 c 4
EndSplineSet
EndChar

StartChar: quoteright
Encoding: 8217 8217 70
Width: 272
VWidth: 0
Flags: W
HStem: 531 98<88.104 153.674>
VStem: 159 47<460.882 575>
LayerCount: 3
Fore
SplineSet
77 575 m 0
 77 606 102 629 133 629 c 0
 164 629 206 604 206 546 c 0
 206 452 142 406 94 368 c 0
 92 367 88 366 86 366 c 0
 84 366 67 374 67 388 c 0
 67 390 72 396 76 399 c 0
 102 416 157 469 159 506 c 0
 159 513 159 520 154 526 c 0
 147 536 143 531 128 531 c 0
 108 531 77 539 77 575 c 0
EndSplineSet
EndChar

StartChar: quoteleft
Encoding: 8216 8216 71
Width: 272
VWidth: 0
Flags: W
HStem: 366 98<119.326 184.896>
VStem: 67 47<420 534.118>
LayerCount: 3
Fore
SplineSet
196 420 m 0
 196 389 171 366 140 366 c 0
 109 366 67 391 67 449 c 0
 67 543 131 589 179 627 c 0
 181 628 185 629 187 629 c 0
 189 629 206 621 206 607 c 0
 206 605 201 599 197 596 c 0
 171 579 116 526 114 489 c 0
 114 482 114 475 119 469 c 0
 126 459 130 464 145 464 c 0
 165 464 196 456 196 420 c 0
EndSplineSet
EndChar

StartChar: endash
Encoding: 8211 8211 72
Width: 399
VWidth: 0
Flags: W
HStem: 144 62<20 377>
LayerCount: 3
Fore
SplineSet
42 206 m 2
 357 206 l 2
 370 206 377 202 377 189 c 2
 377 164 l 2
 377 150 374 144 360 144 c 2
 42 144 l 2
 28 144 20 146 20 160 c 2
 20 188 l 2
 20 203 27 206 42 206 c 2
EndSplineSet
EndChar

StartChar: emdash
Encoding: 8212 8212 73
Width: 669
VWidth: 0
Flags: W
HStem: 144 62<20 647>
LayerCount: 3
Fore
SplineSet
42 206 m 2
 627 206 l 2
 640 206 647 202 647 189 c 2
 647 164 l 2
 647 150 644 144 630 144 c 2
 42 144 l 2
 28 144 20 146 20 160 c 2
 20 188 l 2
 20 203 27 206 42 206 c 2
EndSplineSet
EndChar

StartChar: bracketleft
Encoding: 91 91 74
Width: 308
VWidth: 0
Flags: W
HStem: -175 40<129.001 244.988> 593 34<140 252.828>
VStem: 57 72<-135 182.31>
LayerCount: 3
Fore
SplineSet
93 627 m 0
 143 627 199 630 248 631 c 1
 251 627 253 620 253 613 c 0
 253 607 251 600 249 594 c 1
 140 593 l 1
 140 593 130 280 130 189 c 0
 130 46 129 -80 129 -123 c 0
 129 -135 131 -135 138 -135 c 2
 241 -135 l 1
 244 -142 245 -149 245 -156 c 0
 245 -162 244 -168 242 -175 c 1
 211 -175 l 2
 153 -175 106 -177 89 -177 c 0
 66 -177 57 -176 57 -159 c 2
 70 606 l 2
 70 625 75 627 93 627 c 0
EndSplineSet
EndChar

StartChar: bracketright
Encoding: 93 93 75
Width: 308
VWidth: 0
Flags: W
HStem: -176 37<54.0193 169> 589 41<70.003 184.999>
VStem: 169 71<-139 98.1384> 185 68<352.605 589>
LayerCount: 3
Fore
SplineSet
169 -139 m 1xe0
 172 -37 185 399 185 577 c 0
 185 589 183 589 176 589 c 2
 74 589 l 1
 71 596 70 603 70 610 c 0
 70 616 71 623 73 630 c 1
 86 630 131 629 146 629 c 0
 168 629 215 630 226 630 c 0
 238 630 253 628 253 611 c 2xd0
 240 -152 l 2
 240 -171 235 -176 217 -176 c 0
 167 -176 108 -178 59 -179 c 1
 55 -174 54 -167 54 -159 c 0
 54 -152 55 -144 57 -139 c 1
 169 -139 l 1xe0
EndSplineSet
EndChar

StartChar: Q_u
Encoding: 65538 -1 76
Width: 1182
VWidth: 0
Flags: W
HStem: -285 53<718.937 1008.5> -9 60<866.819 952.943> 582 46<279.36 444.945>
VStem: 36 105<181.888 414.828> 591 100<191.562 411.845> 770 77<71.3661 317.35> 1017 70<54.9688 57 76.9766 318.375>
LayerCount: 3
Fore
SplineSet
591 296 m 0
 591 468 469 582 364 582 c 0
 226 582 141 433 141 305 c 0
 141 136 248 24 365 24 c 0
 534 24 591 175 591 296 c 0
263 -7 m 0
 138 36 36 136 36 294 c 0
 36 476 176 628 360 628 c 0
 553 628 691 479 691 312 c 0
 691 163 601 32 471 -2 c 0
 449 -8 438 -13 438 -17 c 0
 438 -22 479 -69 492 -84 c 0
 520 -116 656 -232 878 -232 c 0
 1021 -232 1070 -205 1102 -187 c 1
 1110 -195 1117 -204 1117 -219 c 1
 1090 -252 936 -285 844 -285 c 0
 656 -285 440 -224 345 -52 c 0
 335 -33 331 -22 327 -21 c 0
 316 -18 290 -16 263 -7 c 0
730 349 m 1
 766 356 844 370 844 370 c 1
 856 359 l 1
 856 359 850 307 849 282 c 0
 848 240 847 158 847 151 c 0
 847 84 868 51 918 51 c 0
 962 51 1014 89 1014 89 c 1
 1015 155 1018 224 1018 290 c 0
 1018 317 998 318 971 328 c 1
 971 352 l 1
 1007 357 1083 370 1083 370 c 1
 1095 359 l 1
 1095 359 1090 280 1090 271 c 0
 1088 237 1087 213 1087 189 c 2
 1087 65 l 2
 1087 48 1096 51 1102 53 c 2
 1151 67 l 1
 1158 61 l 1
 1158 30 l 1
 1116 19 1070 5 1030 -11 c 1
 1017 0 l 1
 1017 57 l 1
 1017 57 948 -9 876 -9 c 0
 816 -9 770 40 770 102 c 0
 770 174 776 270 776 283 c 0
 776 313 753 317 730 324 c 1
 730 349 l 1
EndSplineSet
Ligature2: "'dlig' Discretionary Ligatures in Latin lookup 1 subtable" Q u
EndChar

StartChar: c_t
Encoding: 65539 -1 77
Width: 594
VWidth: 0
Flags: W
HStem: -12 59<452.188 524.235> -11 51<158.379 274.094> 294 78<229.875 297.438> 308 33<332.094 359.303> 312 56<445 568.948> 519 48<251.5 367.853>
VStem: 26 77<101.716 256.719> 174 44<391.801 487.317> 362 75<58.6313 310.888> 370 71<146.122 308> 391 56<370.541 496.48>
LayerCount: 3
Fore
SplineSet
332 341 m 1x9740
 344 346 354 352 362 360 c 0x9780
 373 371 391 417 391 439 c 0
 391 482 364 519 312 519 c 0
 261 519 218 477 218 442 c 0
 218 424 220 412 227 398 c 0
 236 381 247 378 267 372 c 0
 287 366 308 358 308 335 c 0
 308 326 284 294 266 294 c 0
 238 294 222 325 193 325 c 0
 130 325 103 258 103 200 c 0
 103 78 176 40 216 40 c 0
 268 40 316 77 316 77 c 1
 328 52 l 1
 328 52 273 -11 194 -11 c 0
 80 -11 26 71 26 164 c 0
 26 271 104 354 203 375 c 1
 186 396 174 418 174 449 c 0
 174 514 237 567 319 567 c 0
 386 567 447 534 447 448 c 0x6720
 447 420 445 388 445 361 c 1
 567 368 l 1
 567 368 569 361 569 342 c 2
 569 337 l 2
 569 323 566 312 566 312 c 1
 441 314 l 1x4f40
 441 314 437 188 437 144 c 0
 437 95 443 47 492 47 c 0
 528 47 563 76 563 76 c 1
 572 44 l 1
 543 20 500 -12 463 -12 c 0
 392 -12 362 44 362 106 c 0x8f80
 362 124 370 308 370 308 c 1
 337 308 l 1
 332 316 332 322 332 331 c 2
 332 341 l 1x9740
EndSplineSet
Ligature2: "'dlig' Discretionary Ligatures in Latin lookup 1 subtable" c t
EndChar

StartChar: ampersand
Encoding: 38 38 78
Width: 654
VWidth: 0
Flags: W
HStem: -10 81<145.493 271.416 468.576 574.178> 484 61<184.012 265.661>
VStem: 36 61<116.529 239.524> 114 50<377.156 467.052> 282 68<383.513 468.365> 505 123<384.5 450.153>
LayerCount: 3
Fore
SplineSet
499 -10 m 0
 402 -10 361 103 361 103 c 1
 361 103 290 -12 202 -12 c 0
 112 -12 36 58 36 150 c 0
 36 280 147 319 147 319 c 1
 147 319 114 355 114 391 c 0
 114 458 173 545 244 545 c 0
 304 545 350 500 350 442 c 0
 350 398 293 338 293 338 c 1
 343 310 370 256 393 200 c 1
 394 201 505 376 505 393 c 0
 505 412 481 425 481 447 c 0
 481 459 483 463 498 463 c 0
 538 462 582 460 617 459 c 0
 624 459 628 454 628 441 c 0
 628 431 623 421 612 414 c 0
 586 396 557 370 543 352 c 0
 479 270 410 161 410 161 c 1
 410 161 458 71 523 71 c 0
 558 71 581 90 598 113 c 0
 604 121 608 130 618 130 c 0
 625 130 630 124 630 100 c 0
 630 68 592 -10 499 -10 c 0
174 296 m 0
 173 296 97 249 97 171 c 0
 97 137 120 109 148 91 c 0
 165 80 189 76 216 76 c 0
 294 76 344 134 344 134 c 1
 334 155 298 238 275 260 c 0
 254 280 214 274 174 296 c 0
248 351 m 0
 274 351 282 392 282 416 c 0
 282 454 257 484 217 484 c 0
 194 484 164 458 164 427 c 0
 164 406 181 379 197 365 c 0
 210 354 233 351 248 351 c 0
EndSplineSet
EndChar

StartChar: dollar
Encoding: 36 36 79
Width: 430
VWidth: 0
Flags: W
HStem: -6 34<171 257.552>
VStem: 31 63<61.6873 143.992> 79 65<386.071 489.654> 315 69<92.4686 217.967>
DStem2: 121 7 159 -4 0.338015 0.941141<-202.231 2.81529 39.4881 276.404 351.065 551.536 584.225 710.844>
LayerCount: 3
Fore
SplineSet
304 534 m 0xb0
 285 521 278 519 250 515 c 0
 195 508 144 501 144 436 c 0
 144 392 186 360 238 338 c 1
 251 375 288 470 308 529 c 0
 312 538 310 538 304 534 c 0xb0
251 254 m 1
 171 31 l 1
 178 29 186 28 194 28 c 0
 207 28 221 30 231 33 c 0
 277 46 315 88 315 145 c 0
 315 177 310 221 251 254 c 1
89 191 m 0
 107 191 122 181 122 163 c 0
 122 140 94 128 94 101 c 0xd0
 94 62 117 46 134 42 c 1
 217 271 l 1
 154 304 79 334 79 426 c 0xb0
 79 505 142 552 207 552 c 0
 223 552 241 550 253 550 c 0
 309 550 329 594 345 636 c 0
 349 646 353 658 358 672 c 1
 360 673 364 674 367 674 c 0
 381 674 400 666 400 658 c 1
 338 512 309 413 276 322 c 1
 320 296 384 246 384 178 c 0
 384 64 282 -6 204 -6 c 0
 187 -6 171 -6 159 -4 c 1
 128 -84 116 -134 94 -194 c 1
 91 -194 88 -195 85 -195 c 0
 68 -195 54 -188 48 -174 c 1
 81 -101 121 7 121 7 c 17
 43 45 31 96 31 135 c 0xd0
 31 169 43 186 77 190 c 0
 81 191 85 191 89 191 c 0
EndSplineSet
EndChar

StartChar: one
Encoding: 49 49 80
Width: 294
VWidth: 0
Flags: W
HStem: -5 35<34.0058 101.125> 1 37<177.59 259.994> 320 34<42.0068 112.985 182.828 250.961>
VStem: 106 70<38.0426 302> 113 70<85.1018 319.309>
LayerCount: 3
Fore
SplineSet
152 3 m 0x70
 118 3 88 -2 39 -5 c 1
 36 0 34 7 34 13 c 0
 34 19 36 24 38 30 c 1
 87 35 l 2
 102 37 105 52 106 67 c 0xb0
 107 84 107 109 109 184 c 2
 113 302 l 2
 113 313 108 320 80 320 c 2
 47 320 l 1
 43 325 42 330 42 338 c 0
 42 344 44 352 46 357 c 1
 76 355 100 354 123 354 c 0
 171 354 207 357 247 360 c 1
 250 353 251 346 251 339 c 0
 251 332 250 326 246 322 c 1
 205 323 l 2
 191 323 183 312 183 308 c 0xa8
 182 288 176 147 176 82 c 0
 176 57 177 38 198 38 c 2
 253 37 l 1
 258 31 260 26 260 20 c 0
 260 14 258 8 255 1 c 1
 235 1 l 2
 198 1 178 3 152 3 c 0x70
EndSplineSet
EndChar

StartChar: two
Encoding: 50 50 81
Width: 390
VWidth: -2
Flags: W
HStem: -2 64<138 348.852> 335 47<115.657 237.126>
VStem: 254 82<219.187 317.788>
LayerCount: 3
Fore
SplineSet
336 294 m 0
 336 206 262 161 178 94 c 0
 156 76 138 64 138 64 c 1
 138 64 183 62 232 62 c 0
 257 62 282 62 304 64 c 0
 313 65 318 67 324 69 c 0
 330 71 350 79 355 79 c 0
 363 79 365 74 365 68 c 0
 365 65 365 62 364 60 c 0
 360 41 355 26 349 7 c 0
 346 -1 333 -2 321 -2 c 0
 231 -2 192 1 96 1 c 0
 77 1 72 -4 51 -4 c 0
 35 -4 28 8 28 22 c 0
 28 33 35 37 44 44 c 0
 128 104 254 176 254 278 c 0
 254 310 217 335 187 335 c 0
 108 335 61 279 42 279 c 0
 33 279 27 290 27 298 c 0
 27 308 50 324 73 338 c 0
 109 359 151 382 209 382 c 0
 276 382 336 356 336 294 c 0
EndSplineSet
EndChar

StartChar: three
Encoding: 51 51 82
Width: 370
VWidth: 5
Flags: W
HStem: -202 38<18.1781 125.675> 83 38<142.445 247.127> 331 48<89.7435 211.237>
VStem: 233 74<218.596 309.645> 250 82<-65.88 47.3229>
LayerCount: 3
Fore
SplineSet
54 339 m 0xf0
 106 370 153 379 197 379 c 0
 254 379 307 341 307 281 c 0xf0
 307 206 223 157 181 128 c 0
 171 121 172 118 184 120 c 0
 194 121 204 121 213 121 c 0
 284 121 332 77 332 17 c 0
 332 -19 321 -49 305 -75 c 0
 240 -177 109 -202 32 -202 c 0
 23 -202 18 -196 18 -178 c 0
 18 -172 23 -165 28 -164 c 0
 47 -162 67 -159 86 -156 c 0
 165 -142 250 -91 250 -11 c 0xe8
 250 31 219 83 143 83 c 0
 117 83 109 73 100 73 c 0
 91 73 78 85 78 94 c 0
 78 97 80 100 83 102 c 0
 131 134 233 195 233 256 c 0
 233 308 192 331 158 331 c 0
 129 331 111 324 78 310 c 0
 75 309 70 307 67 307 c 0
 57 307 49 319 49 329 c 0
 49 333 50 337 54 339 c 0xf0
EndSplineSet
EndChar

StartChar: four
Encoding: 52 52 83
Width: 442
VWidth: 0
Flags: W
HStem: 0 54<86 262 327 423.895>
VStem: 254 75<-220 -0.078125> 262 65<-207.675 0 54 278>
DStem2: 43 68 86 54 0.619559 0.78495<15.6517 300.523>
LayerCount: 3
Fore
SplineSet
86 54 m 25xa0
 262 54 l 25
 262 278 l 25
 86 54 l 25xa0
43 68 m 2
 279 367 l 2
 288 379 297 388 314 388 c 0
 331 388 333 373 333 366 c 0
 333 312 327 317 327 78 c 2
 327 54 l 9
 421 54 l 17
 423 45 424 37 424 28 c 0
 424 17 423 7 421 0 c 9
 327 0 l 17
 327 -87 l 2xa0
 327 -138 327 -195 329 -208 c 0
 330 -219 319 -220 309 -220 c 2
 272 -220 l 2
 258 -220 254 -217 254 -208 c 0xc0
 254 -201 254 -198 255 -190 c 0
 258 -157 262 -75 262 -5 c 2
 262 0 l 1
 52 0 l 2
 33 0 32 6 32 18 c 2
 32 33 l 2
 32 50 35 58 43 68 c 2
EndSplineSet
EndChar

StartChar: five
Encoding: 53 53 84
Width: 390
VWidth: 0
Flags: W
HStem: 292 62<107.299 292.162> 306 75<267.79 320.364>
VStem: 48 56<194.5 267.839> 273 79<-25.8798 112.592>
LayerCount: 3
Fore
SplineSet
96 354 m 0xb0
 150 356 173 357 267 360 c 0
 284 361 292 381 306 381 c 0
 321 381 326 369 326 356 c 0
 326 332 317 312 294 306 c 0x70
 255 295 202 292 163 292 c 2
 133 292 l 2
 119 292 110 290 107 269 c 0
 106 261 104 246 104 244 c 0
 104 227 113 225 146 223 c 0
 215 219 352 198 352 61 c 0
 352 -98 146 -214 84 -214 c 0
 76 -214 68 -208 68 -195 c 0
 68 -184 85 -178 96 -172 c 0
 167 -137 273 -65 273 40 c 0
 273 134 194 175 77 176 c 0
 62 176 48 187 48 202 c 0
 48 204 48 207 49 210 c 0
 66 268 68 286 77 343 c 0
 78 351 88 354 96 354 c 0xb0
EndSplineSet
EndChar

StartChar: six
Encoding: 54 54 85
Width: 470
VWidth: 0
Flags: W
HStem: -12 37<198.839 297.124> 331 33<167.739 270.318> 571 28<342.455 406.088>
VStem: 51 81<102.584 300.725> 346 76<86.0814 247.299>
LayerCount: 3
Fore
SplineSet
250 25 m 0
 308 25 346 92 346 154 c 0
 346 229 297 331 224 331 c 0
 145 331 132 269 132 209 c 0
 132 124 172 25 250 25 c 0
156 345 m 1
 187 359 223 364 245 364 c 0
 353 364 422 283 422 180 c 0
 422 78 355 -12 234 -12 c 0
 123 -12 51 90 51 202 c 0
 51 393 185 599 401 599 c 1
 409 595 409 576 404 571 c 1
 220 554 165 386 156 345 c 1
EndSplineSet
EndChar

StartChar: f_f
Encoding: 65540 -1 86
Width: 522
VWidth: 0
Flags: W
HStem: 0 35<19.1238 57.3914 167.8 200.941 244.006 282.391> 2 40<373.412 446.947> 313 53<370 493.966> 321 43<18 76 145 301 370 475.875> 607 40<204.176 310.5> 610 58<433.003 528.265>
VStem: 76 69<39.3034 321 364 511.63> 301 69<41.81 318 364 528.439>
LayerCount: 3
Fore
SplineSet
145 321 m 1x53
 147 99 l 2
 147 65 148 42 160 40 c 2
 199 35 l 1
 200 30 201 21 201 15 c 0
 201 10 200 5 198 0 c 1
 164 0 39 -5 26 -6 c 1
 21 -2 19 6 19 14 c 0
 19 20 20 27 22 32 c 1
 33 34 45 35 58 38 c 0
 68 41 74 53 74 71 c 2
 76 321 l 1
 22 321 l 1
 22 321 18 329 18 341 c 2
 18 346 l 2
 18 356 21 364 21 364 c 1
 76 364 l 1
 76 486 97 546 169 605 c 0
 194 626 235 647 294 647 c 0
 327 647 364 638 381 607 c 1x9b
 385 611 389 615 393 618 c 0
 420 640 456 668 517 668 c 0
 547 668 581 662 581 636 c 0
 581 612 571 582 552 582 c 0
 529 582 497 610 468 610 c 0
 447 610 430 606 418 595 c 0
 376 559 370 454 370 401 c 2
 370 364 l 1x17
 492 366 l 1
 492 366 494 361 494 342 c 2
 494 337 l 2
 494 323 491 313 491 313 c 1
 370 318 l 1
 372 99 l 2
 372 65 373 42 385 42 c 2x63
 442 40 l 1
 445 35 447 28 447 20 c 0
 447 13 446 6 441 0 c 1x83
 434 0 363 2 347 2 c 0
 299 2 251 -3 251 -3 c 1
 246 1 244 9 244 17 c 0
 244 23 245 27 247 32 c 1
 258 34 270 36 283 39 c 0
 293 42 299 53 299 71 c 2
 301 321 l 1
 145 321 l 1x53
340 560 m 1
 308 560 287 607 248 607 c 0
 170.610964742 607 145 515.425613998 145 364 c 1
 301 364 l 1
 301 408 303 452 313 499 c 0
 318 521 327 541 340 560 c 1
EndSplineSet
Ligature2: "'liga' Standard Ligatures in Latin lookup 0 subtable" f f
LCarets2: 1 0 
EndChar

StartChar: f_i
Encoding: 65541 -1 87
Width: 449
VWidth: 0
Flags: W
HStem: 2 36<17.3438 57.3906 156 199.963 246.001 278 369.187 427> 318 46<18.0192 76 145 292.356> 610 58<208.003 307.278>
VStem: 76 69<40.1458 318 364 528.439> 298 71<38.2344 313.125>
LayerCount: 3
Fore
SplineSet
250 -2 m 1
 248 4 246 12 246 19 c 0
 246 24 246 28 248 32 c 1
 278 36 l 2
 296 39 298 54 298 67 c 2
 298 269 l 2
 298 299 282 318 268 318 c 2
 145 318 l 1
 147 99 l 1
 147 69 l 2
 147 51 148 40 156 39 c 2
 196 36 l 1
 199 33 200 28 200 22 c 0
 200 13 198 4 197 -1 c 1
 162 0 123 3 107 3 c 0
 59 3 23 -2 23 -2 c 1
 19 1 17 8 17 15 c 0
 17 22 19 29 21 35 c 1
 32 37 45 37 58 40 c 0
 68 43 74 53 74 71 c 2
 76 321 l 1
 22 321 l 1
 22 321 18 329 18 341 c 2
 18 346 l 2
 18 356 21 364 21 364 c 1
 76 364 l 1
 76 408 78 452 88 499 c 0
 98 546 130 587 168 618 c 0
 195 640 231 668 292 668 c 0
 330 668 361 660 361 636 c 0
 361 612 351 582 332 582 c 0
 309 582 272 610 243 610 c 0
 222 610 205 606 193 595 c 0
 151 559 145 454 145 401 c 2
 145 364 l 1
 267 364 l 2
 304 364 337 366 366 383 c 1
 381 373 l 1
 381 373 371 263 371 224 c 2
 369 67 l 2
 369 52 369 38 379 38 c 2
 427 39 l 1
 429 33 431 29 431 23 c 0
 431 17 429 9 427 1 c 1
 414 1 415 2 395 2 c 2
 346 2 l 2
 311 2 293 0 250 -2 c 1
EndSplineSet
Ligature2: "'liga' Standard Ligatures in Latin lookup 0 subtable" f i
LCarets2: 1 0 
EndChar

StartChar: f_l
Encoding: 65542 -1 88
Width: 456
VWidth: 0
Flags: W
HStem: -1 36<144.893 195.999 244.314 291.048 367.543 426.977> 3 32<21.0254 66.0937 145.322 189.628> 318 46<13.0192 71 140 299> 605 63<211.291 300.5>
VStem: 71 69<34.9091 318 364 526.783> 299 68<35.9434 318 364 538.96>
LayerCount: 3
Fore
SplineSet
421 35 m 1xbc
 425 29 427 23 427 16 c 0
 427 10 426 4 424 -1 c 1
 391 1 360 2 336 2 c 0
 305 2 278 0 246 -4 c 1
 245 0 244 5 244 10 c 0
 244 17 245 24 246 29 c 1
 264 32 288 33 290 47 c 0
 294 68 295 86 296 184 c 0
 297 233 298 276 299 318 c 1
 140 318 l 1
 142 99 l 2
 142 65 144 35 156 35 c 2xbc
 192 34 l 1
 194 31 196 25 196 17 c 0
 196 11 195 4 190 -2 c 1
 183 -2 116 3 73 3 c 0x7c
 56 3 21 -1 21 -1 c 1xbc
 16 3 14 9 14 17 c 0
 14 23 16 29 18 34 c 1
 18 34 22 34 53 35 c 0x7c
 62 35 69 53 69 71 c 2
 71 321 l 1
 17 321 l 1
 17 321 13 329 13 341 c 2
 13 346 l 2
 13 356 16 364 16 364 c 1
 71 364 l 1
 71 408 73 452 83 499 c 0
 93 546 123 580 161 611 c 0
 188 633 231 668 292 668 c 0
 309 668 327 666 340 659 c 1
 349 662 359 667 367 667 c 0
 376 667 385 661 385 651 c 0
 385 645 381 622 379 612 c 0
 376 592 373 577 372 532 c 0
 371 457 367 338 367 302 c 2
 367 63 l 2
 367 46 371 36 376 36 c 0
 386 36 409 35 421 35 c 1xbc
194 593 m 0
 142 556 140 472 140 417 c 2
 140 364 l 1
 300 364 l 1
 302 421 303 477 303 542 c 0
 303 581 274 605 237 605 c 0
 224 605 206 601 194 593 c 0
EndSplineSet
Ligature2: "'liga' Standard Ligatures in Latin lookup 0 subtable" f l
LCarets2: 1 0 
EndChar

StartChar: f_f_i
Encoding: 65543 -1 89
Width: 680
VWidth: 0
Flags: W
HStem: -2 34<473.206 505> 2 36<17.0015 71.9543 160 200.964 244.304 284.391 383 426.963 596.187 657.833> 321 43<18 76 145 303 372 517.707> 607 40<204.254 310.5> 610 58<435.003 534.278>
VStem: 76 69<42.6299 321 364 511.63> 303 69<42.1458 318 364 525.075> 525 71<38.2344 313.125>
LayerCount: 3
Fore
SplineSet
145 364 m 1x37
 303 364 l 1
 303 408 305 452 315 499 c 0
 319 517 335 552 342 560 c 1
 310 560 287 607 248 607 c 0
 171 607 145 515 145 364 c 1x37
303 321 m 1
 145 321 l 1
 147 99 l 2
 147 65 148 44 160 43 c 2
 199 40 l 1
 200 35 201 24 201 18 c 0
 201 13 200 8 198 3 c 1
 178 4 159 5 140 5 c 0
 83 5 24 0 24 0 c 1
 19 4 17 12 17 20 c 0
 17 26 18 33 20 38 c 1
 31 40 45 38 58 41 c 0
 68 44 74 53 74 71 c 2
 76 321 l 1
 22 321 l 1
 22 321 18 329 18 341 c 2
 18 346 l 2
 18 356 21 364 21 364 c 1
 76 364 l 1
 76 486 97 546 169 605 c 0
 194 626 235 647 294 647 c 0
 327 647 365 638 382 607 c 1x77
 395 618 l 2
 422 640 458 668 519 668 c 0
 557 668 588 660 588 636 c 0
 588 612 578 582 559 582 c 0
 536 582 499 610 470 610 c 0
 449 610 432 606 420 595 c 0
 378 559 372 454 372 401 c 2
 372 364 l 1
 494 364 l 2
 531 364 564 366 593 383 c 1
 608 373 l 1
 608 373 598 263 598 224 c 2
 596 67 l 2
 596 52 596 38 606 38 c 2
 654 39 l 1
 656 33 658 29 658 23 c 0
 658 17 656 9 654 1 c 1
 641 1 642 2 622 2 c 2
 573 2 l 2x6f
 538 2 520 0 477 -2 c 1
 475 4 473 12 473 19 c 0
 473 24 473 28 475 32 c 1xa7
 505 36 l 2
 523 39 525 54 525 67 c 2
 525 269 l 2
 525 299 509 318 495 318 c 2
 372 318 l 1
 374 71 l 2
 374 53 375 42 383 41 c 2
 423 38 l 1x67
 426 35 427 28 427 22 c 0
 427 13 425 4 424 -1 c 1
 389 0 350 3 334 3 c 0
 286 3 250 -2 250 -2 c 1xa7
 246 1 244 8 244 15 c 0
 244 22 246 31 248 37 c 1
 259 39 272 39 285 42 c 0
 295 45 301 55 301 73 c 2
 303 321 l 1
EndSplineSet
Ligature2: "'liga' Standard Ligatures in Latin lookup 0 subtable" f f i
LCarets2: 2 0 0 
EndChar

StartChar: f_f_l
Encoding: 65544 -1 90
Width: 680
VWidth: 0
Flags: W
HStem: -8 35<19.0732 70.5383> 0 32<173 200.927 246.248 297.399 376.58 427.987 476.398 522.185 600.296 658.928> 318 46<18.0192 76 145 303 372 531> 605 63<443.291 532.5> 607 40<204.254 310.5>
VStem: 76 69<35.0288 321 364 511.63> 303 69<32 318 364 526.783> 528 71<34.0203 316.03> 532 67<186.292 318 364 591.972>
LayerCount: 3
Fore
SplineSet
426 593 m 0x3680
 374 556 372 472 372 417 c 2
 372 364 l 1
 532 364 l 1
 534 421 535 477 535 542 c 0
 535 581 506 605 469 605 c 0
 456 605 438 601 426 593 c 0x3680
653 33 m 1
 657 27 659 21 659 14 c 0
 659 8 658 2 656 -3 c 1
 623 -1 592 0 568 0 c 0x77
 537 0 510 -2 478 -6 c 1
 477 -2 476 3 476 8 c 0
 476 15 477 22 478 27 c 1xa7
 496 30 520 33 522 47 c 0
 526 68 527 86 528 184 c 0
 529 233 530 276 531 318 c 1
 372 318 l 1
 373 241 374 165 374 88 c 0
 374 58 375 32 390 32 c 2
 424 32 l 1
 426 29 428 23 428 15 c 0
 428 9 427 2 422 -4 c 1
 415 -4 348 0 305 0 c 0
 288 0 252 -3 252 -3 c 1
 248 2 246 7 246 13 c 0
 246 18 248 23 250 29 c 1
 250 29 254 31 285 32 c 0x67
 294 32 301 53 301 71 c 2
 303 321 l 1
 145 321 l 1
 147 99 l 2
 147 65 148 36 160 35 c 2
 199 33 l 1
 200 28 201 19 201 13 c 0
 201 8 200 3 198 -2 c 1
 164 -2 79 -2 26 -8 c 1
 21 -4 19 4 19 12 c 0
 19 18 20 22 22 27 c 1
 58 30 74 26 74 69 c 2
 76 321 l 1
 22 321 l 1
 22 321 18 329 18 341 c 2
 18 346 l 2
 18 356 21 364 21 364 c 1
 76 364 l 1
 76 486 97 546 169 605 c 0xb7
 194 626 235 647 294 647 c 0
 327 647 364 638 381 607 c 0x2f
 382 606 382 604 383 603 c 1
 393 611 l 2
 420 633 463 668 524 668 c 0
 541 668 559 666 572 659 c 1
 581 662 591 667 599 667 c 0x3680
 608 667 617 661 617 651 c 0
 617 645 613 622 611 612 c 0
 608 592 605 577 604 532 c 0
 603 457 599 338 599 302 c 2
 599 63 l 2x37
 599 46 603 34 608 34 c 0
 618 34 641 33 653 33 c 1
340 560 m 2
 308 560 287 607 248 607 c 0x2e
 171 607 145 515 145 364 c 1
 303 364 l 1
 303 408 305 452 315 499 c 0
 320 522 330 542 343 560 c 1
 340 560 l 2
EndSplineSet
Ligature2: "'liga' Standard Ligatures in Latin lookup 0 subtable" f f l
LCarets2: 2 0 0 
EndChar

